<?xml version="1.0" encoding="utf-8" standalone="no"?>
<!DOCTYPE svg PUBLIC "-//W3C//DTD SVG 1.1//EN"
  "http://www.w3.org/Graphics/SVG/1.1/DTD/svg11.dtd">
<!-- Created with matplotlib (https://matplotlib.org/) -->
<svg height="345.6pt" version="1.1" viewBox="0 0 460.8 345.6" width="460.8pt" xmlns="http://www.w3.org/2000/svg" xmlns:xlink="http://www.w3.org/1999/xlink">
 <defs>
  <style type="text/css">
*{stroke-linecap:butt;stroke-linejoin:round;}
  </style>
 </defs>
 <g id="figure_1">
  <g id="patch_1">
   <path d="M 0 345.6 
L 460.8 345.6 
L 460.8 0 
L 0 0 
z
" style="fill:#ffffff;"/>
  </g>
  <g id="axes_1">
   <g id="patch_2">
    <path d="M 57.6 307.584 
L 414.72 307.584 
L 414.72 41.472 
L 57.6 41.472 
z
" style="fill:#ffffff;"/>
   </g>
   <g id="patch_3">
    <path clip-path="url(#pfec1dbe574)" d="M 73.832727 307.584 
L 76.624395 307.584 
L 76.624395 307.584 
L 73.832727 307.584 
z
" style="fill:#0000ff;opacity:0.5;"/>
   </g>
   <g id="patch_4">
    <path clip-path="url(#pfec1dbe574)" d="M 77.117042 307.584 
L 79.90871 307.584 
L 79.90871 307.584 
L 77.117042 307.584 
z
" style="fill:#0000ff;opacity:0.5;"/>
   </g>
   <g id="patch_5">
    <path clip-path="url(#pfec1dbe574)" d="M 80.401357 307.584 
L 83.193025 307.584 
L 83.193025 307.584 
L 80.401357 307.584 
z
" style="fill:#0000ff;opacity:0.5;"/>
   </g>
   <g id="patch_6">
    <path clip-path="url(#pfec1dbe574)" d="M 83.685673 307.584 
L 86.47734 307.584 
L 86.47734 307.584 
L 83.685673 307.584 
z
" style="fill:#0000ff;opacity:0.5;"/>
   </g>
   <g id="patch_7">
    <path clip-path="url(#pfec1dbe574)" d="M 86.969988 307.584 
L 89.761655 307.584 
L 89.761655 307.584 
L 86.969988 307.584 
z
" style="fill:#0000ff;opacity:0.5;"/>
   </g>
   <g id="patch_8">
    <path clip-path="url(#pfec1dbe574)" d="M 90.254303 307.584 
L 93.04597 307.584 
L 93.04597 307.584 
L 90.254303 307.584 
z
" style="fill:#0000ff;opacity:0.5;"/>
   </g>
   <g id="patch_9">
    <path clip-path="url(#pfec1dbe574)" d="M 93.538618 307.584 
L 96.330286 307.584 
L 96.330286 307.584 
L 93.538618 307.584 
z
" style="fill:#0000ff;opacity:0.5;"/>
   </g>
   <g id="patch_10">
    <path clip-path="url(#pfec1dbe574)" d="M 96.822933 307.584 
L 99.614601 307.584 
L 99.614601 307.584 
L 96.822933 307.584 
z
" style="fill:#0000ff;opacity:0.5;"/>
   </g>
   <g id="patch_11">
    <path clip-path="url(#pfec1dbe574)" d="M 100.107248 307.584 
L 102.898916 307.584 
L 102.898916 307.584 
L 100.107248 307.584 
z
" style="fill:#0000ff;opacity:0.5;"/>
   </g>
   <g id="patch_12">
    <path clip-path="url(#pfec1dbe574)" d="M 103.391563 307.584 
L 106.183231 307.584 
L 106.183231 307.584 
L 103.391563 307.584 
z
" style="fill:#0000ff;opacity:0.5;"/>
   </g>
   <g id="patch_13">
    <path clip-path="url(#pfec1dbe574)" d="M 106.675878 307.584 
L 109.467546 307.584 
L 109.467546 307.584 
L 106.675878 307.584 
z
" style="fill:#0000ff;opacity:0.5;"/>
   </g>
   <g id="patch_14">
    <path clip-path="url(#pfec1dbe574)" d="M 109.960193 307.584 
L 112.751861 307.584 
L 112.751861 307.584 
L 109.960193 307.584 
z
" style="fill:#0000ff;opacity:0.5;"/>
   </g>
   <g id="patch_15">
    <path clip-path="url(#pfec1dbe574)" d="M 113.244508 307.584 
L 116.036176 307.584 
L 116.036176 307.404637 
L 113.244508 307.404637 
z
" style="fill:#0000ff;opacity:0.5;"/>
   </g>
   <g id="patch_16">
    <path clip-path="url(#pfec1dbe574)" d="M 116.528823 307.584 
L 119.320491 307.584 
L 119.320491 307.584 
L 116.528823 307.584 
z
" style="fill:#0000ff;opacity:0.5;"/>
   </g>
   <g id="patch_17">
    <path clip-path="url(#pfec1dbe574)" d="M 119.813138 307.584 
L 122.604806 307.584 
L 122.604806 307.584 
L 119.813138 307.584 
z
" style="fill:#0000ff;opacity:0.5;"/>
   </g>
   <g id="patch_18">
    <path clip-path="url(#pfec1dbe574)" d="M 123.097453 307.584 
L 125.889121 307.584 
L 125.889121 307.225274 
L 123.097453 307.225274 
z
" style="fill:#0000ff;opacity:0.5;"/>
   </g>
   <g id="patch_19">
    <path clip-path="url(#pfec1dbe574)" d="M 126.381769 307.584 
L 129.173436 307.584 
L 129.173436 307.584 
L 126.381769 307.584 
z
" style="fill:#0000ff;opacity:0.5;"/>
   </g>
   <g id="patch_20">
    <path clip-path="url(#pfec1dbe574)" d="M 129.666084 307.584 
L 132.457751 307.584 
L 132.457751 307.584 
L 129.666084 307.584 
z
" style="fill:#0000ff;opacity:0.5;"/>
   </g>
   <g id="patch_21">
    <path clip-path="url(#pfec1dbe574)" d="M 132.950399 307.584 
L 135.742066 307.584 
L 135.742066 307.584 
L 132.950399 307.584 
z
" style="fill:#0000ff;opacity:0.5;"/>
   </g>
   <g id="patch_22">
    <path clip-path="url(#pfec1dbe574)" d="M 136.234714 307.584 
L 139.026382 307.584 
L 139.026382 307.584 
L 136.234714 307.584 
z
" style="fill:#0000ff;opacity:0.5;"/>
   </g>
   <g id="patch_23">
    <path clip-path="url(#pfec1dbe574)" d="M 139.519029 307.584 
L 142.310697 307.584 
L 142.310697 306.866548 
L 139.519029 306.866548 
z
" style="fill:#0000ff;opacity:0.5;"/>
   </g>
   <g id="patch_24">
    <path clip-path="url(#pfec1dbe574)" d="M 142.803344 307.584 
L 145.595012 307.584 
L 145.595012 305.431643 
L 142.803344 305.431643 
z
" style="fill:#0000ff;opacity:0.5;"/>
   </g>
   <g id="patch_25">
    <path clip-path="url(#pfec1dbe574)" d="M 146.087659 307.584 
L 148.879327 307.584 
L 148.879327 304.893554 
L 146.087659 304.893554 
z
" style="fill:#0000ff;opacity:0.5;"/>
   </g>
   <g id="patch_26">
    <path clip-path="url(#pfec1dbe574)" d="M 149.371974 307.584 
L 152.163642 307.584 
L 152.163642 303.817376 
L 149.371974 303.817376 
z
" style="fill:#0000ff;opacity:0.5;"/>
   </g>
   <g id="patch_27">
    <path clip-path="url(#pfec1dbe574)" d="M 152.656289 307.584 
L 155.447957 307.584 
L 155.447957 303.996739 
L 152.656289 303.996739 
z
" style="fill:#0000ff;opacity:0.5;"/>
   </g>
   <g id="patch_28">
    <path clip-path="url(#pfec1dbe574)" d="M 155.940604 307.584 
L 158.732272 307.584 
L 158.732272 305.611006 
L 155.940604 305.611006 
z
" style="fill:#0000ff;opacity:0.5;"/>
   </g>
   <g id="patch_29">
    <path clip-path="url(#pfec1dbe574)" d="M 159.224919 307.584 
L 162.016587 307.584 
L 162.016587 301.485656 
L 159.224919 301.485656 
z
" style="fill:#0000ff;opacity:0.5;"/>
   </g>
   <g id="patch_30">
    <path clip-path="url(#pfec1dbe574)" d="M 162.509234 307.584 
L 165.300902 307.584 
L 165.300902 304.714191 
L 162.509234 304.714191 
z
" style="fill:#0000ff;opacity:0.5;"/>
   </g>
   <g id="patch_31">
    <path clip-path="url(#pfec1dbe574)" d="M 165.793549 307.584 
L 168.585217 307.584 
L 168.585217 303.638013 
L 165.793549 303.638013 
z
" style="fill:#0000ff;opacity:0.5;"/>
   </g>
   <g id="patch_32">
    <path clip-path="url(#pfec1dbe574)" d="M 169.077865 307.584 
L 171.869532 307.584 
L 171.869532 305.072917 
L 169.077865 305.072917 
z
" style="fill:#0000ff;opacity:0.5;"/>
   </g>
   <g id="patch_33">
    <path clip-path="url(#pfec1dbe574)" d="M 172.36218 307.584 
L 175.153847 307.584 
L 175.153847 303.279287 
L 172.36218 303.279287 
z
" style="fill:#0000ff;opacity:0.5;"/>
   </g>
   <g id="patch_34">
    <path clip-path="url(#pfec1dbe574)" d="M 175.646495 307.584 
L 178.438163 307.584 
L 178.438163 306.507822 
L 175.646495 306.507822 
z
" style="fill:#0000ff;opacity:0.5;"/>
   </g>
   <g id="patch_35">
    <path clip-path="url(#pfec1dbe574)" d="M 178.93081 307.584 
L 181.722478 307.584 
L 181.722478 306.687185 
L 178.93081 306.687185 
z
" style="fill:#0000ff;opacity:0.5;"/>
   </g>
   <g id="patch_36">
    <path clip-path="url(#pfec1dbe574)" d="M 182.215125 307.584 
L 185.006793 307.584 
L 185.006793 307.045911 
L 182.215125 307.045911 
z
" style="fill:#0000ff;opacity:0.5;"/>
   </g>
   <g id="patch_37">
    <path clip-path="url(#pfec1dbe574)" d="M 185.49944 307.584 
L 188.291108 307.584 
L 188.291108 304.534828 
L 185.49944 304.534828 
z
" style="fill:#0000ff;opacity:0.5;"/>
   </g>
   <g id="patch_38">
    <path clip-path="url(#pfec1dbe574)" d="M 188.783755 307.584 
L 191.575423 307.584 
L 191.575423 302.741197 
L 188.783755 302.741197 
z
" style="fill:#0000ff;opacity:0.5;"/>
   </g>
   <g id="patch_39">
    <path clip-path="url(#pfec1dbe574)" d="M 192.06807 307.584 
L 194.859738 307.584 
L 194.859738 299.153936 
L 192.06807 299.153936 
z
" style="fill:#0000ff;opacity:0.5;"/>
   </g>
   <g id="patch_40">
    <path clip-path="url(#pfec1dbe574)" d="M 195.352385 307.584 
L 198.144053 307.584 
L 198.144053 299.512662 
L 195.352385 299.512662 
z
" style="fill:#0000ff;opacity:0.5;"/>
   </g>
   <g id="patch_41">
    <path clip-path="url(#pfec1dbe574)" d="M 198.6367 307.584 
L 201.428368 307.584 
L 201.428368 297.539669 
L 198.6367 297.539669 
z
" style="fill:#0000ff;opacity:0.5;"/>
   </g>
   <g id="patch_42">
    <path clip-path="url(#pfec1dbe574)" d="M 201.921015 307.584 
L 204.712683 307.584 
L 204.712683 300.588841 
L 201.921015 300.588841 
z
" style="fill:#0000ff;opacity:0.5;"/>
   </g>
   <g id="patch_43">
    <path clip-path="url(#pfec1dbe574)" d="M 205.20533 307.584 
L 207.996998 307.584 
L 207.996998 295.387312 
L 205.20533 295.387312 
z
" style="fill:#0000ff;opacity:0.5;"/>
   </g>
   <g id="patch_44">
    <path clip-path="url(#pfec1dbe574)" d="M 208.489645 307.584 
L 211.281313 307.584 
L 211.281313 296.642854 
L 208.489645 296.642854 
z
" style="fill:#0000ff;opacity:0.5;"/>
   </g>
   <g id="patch_45">
    <path clip-path="url(#pfec1dbe574)" d="M 211.773961 307.584 
L 214.565628 307.584 
L 214.565628 299.153936 
L 211.773961 299.153936 
z
" style="fill:#0000ff;opacity:0.5;"/>
   </g>
   <g id="patch_46">
    <path clip-path="url(#pfec1dbe574)" d="M 215.058276 307.584 
L 217.849943 307.584 
L 217.849943 300.768204 
L 215.058276 300.768204 
z
" style="fill:#0000ff;opacity:0.5;"/>
   </g>
   <g id="patch_47">
    <path clip-path="url(#pfec1dbe574)" d="M 218.342591 307.584 
L 221.134259 307.584 
L 221.134259 302.561834 
L 218.342591 302.561834 
z
" style="fill:#0000ff;opacity:0.5;"/>
   </g>
   <g id="patch_48">
    <path clip-path="url(#pfec1dbe574)" d="M 221.626906 307.584 
L 224.418574 307.584 
L 224.418574 301.485656 
L 221.626906 301.485656 
z
" style="fill:#0000ff;opacity:0.5;"/>
   </g>
   <g id="patch_49">
    <path clip-path="url(#pfec1dbe574)" d="M 224.911221 307.584 
L 227.702889 307.584 
L 227.702889 301.485656 
L 224.911221 301.485656 
z
" style="fill:#0000ff;opacity:0.5;"/>
   </g>
   <g id="patch_50">
    <path clip-path="url(#pfec1dbe574)" d="M 228.195536 307.584 
L 230.987204 307.584 
L 230.987204 305.431643 
L 228.195536 305.431643 
z
" style="fill:#0000ff;opacity:0.5;"/>
   </g>
   <g id="patch_51">
    <path clip-path="url(#pfec1dbe574)" d="M 231.479851 307.584 
L 234.271519 307.584 
L 234.271519 304.893554 
L 231.479851 304.893554 
z
" style="fill:#0000ff;opacity:0.5;"/>
   </g>
   <g id="patch_52">
    <path clip-path="url(#pfec1dbe574)" d="M 234.764166 307.584 
L 237.555834 307.584 
L 237.555834 304.893554 
L 234.764166 304.893554 
z
" style="fill:#0000ff;opacity:0.5;"/>
   </g>
   <g id="patch_53">
    <path clip-path="url(#pfec1dbe574)" d="M 238.048481 307.584 
L 240.840149 307.584 
L 240.840149 297.898395 
L 238.048481 297.898395 
z
" style="fill:#0000ff;opacity:0.5;"/>
   </g>
   <g id="patch_54">
    <path clip-path="url(#pfec1dbe574)" d="M 241.332796 307.584 
L 244.124464 307.584 
L 244.124464 295.387312 
L 241.332796 295.387312 
z
" style="fill:#0000ff;opacity:0.5;"/>
   </g>
   <g id="patch_55">
    <path clip-path="url(#pfec1dbe574)" d="M 244.617111 307.584 
L 247.408779 307.584 
L 247.408779 292.696866 
L 244.617111 292.696866 
z
" style="fill:#0000ff;opacity:0.5;"/>
   </g>
   <g id="patch_56">
    <path clip-path="url(#pfec1dbe574)" d="M 247.901426 307.584 
L 250.693094 307.584 
L 250.693094 292.158777 
L 247.901426 292.158777 
z
" style="fill:#0000ff;opacity:0.5;"/>
   </g>
   <g id="patch_57">
    <path clip-path="url(#pfec1dbe574)" d="M 251.185741 307.584 
L 253.977409 307.584 
L 253.977409 280.141452 
L 251.185741 280.141452 
z
" style="fill:#0000ff;opacity:0.5;"/>
   </g>
   <g id="patch_58">
    <path clip-path="url(#pfec1dbe574)" d="M 254.470057 307.584 
L 257.261724 307.584 
L 257.261724 278.885911 
L 254.470057 278.885911 
z
" style="fill:#0000ff;opacity:0.5;"/>
   </g>
   <g id="patch_59">
    <path clip-path="url(#pfec1dbe574)" d="M 257.754372 307.584 
L 260.546039 307.584 
L 260.546039 283.190624 
L 257.754372 283.190624 
z
" style="fill:#0000ff;opacity:0.5;"/>
   </g>
   <g id="patch_60">
    <path clip-path="url(#pfec1dbe574)" d="M 261.038687 307.584 
L 263.830355 307.584 
L 263.830355 289.109605 
L 261.038687 289.109605 
z
" style="fill:#0000ff;opacity:0.5;"/>
   </g>
   <g id="patch_61">
    <path clip-path="url(#pfec1dbe574)" d="M 264.323002 307.584 
L 267.11467 307.584 
L 267.11467 294.131771 
L 264.323002 294.131771 
z
" style="fill:#0000ff;opacity:0.5;"/>
   </g>
   <g id="patch_62">
    <path clip-path="url(#pfec1dbe574)" d="M 267.607317 307.584 
L 270.398985 307.584 
L 270.398985 298.436484 
L 267.607317 298.436484 
z
" style="fill:#0000ff;opacity:0.5;"/>
   </g>
   <g id="patch_63">
    <path clip-path="url(#pfec1dbe574)" d="M 270.891632 307.584 
L 273.6833 307.584 
L 273.6833 303.279287 
L 270.891632 303.279287 
z
" style="fill:#0000ff;opacity:0.5;"/>
   </g>
   <g id="patch_64">
    <path clip-path="url(#pfec1dbe574)" d="M 274.175947 307.584 
L 276.967615 307.584 
L 276.967615 299.871389 
L 274.175947 299.871389 
z
" style="fill:#0000ff;opacity:0.5;"/>
   </g>
   <g id="patch_65">
    <path clip-path="url(#pfec1dbe574)" d="M 277.460262 307.584 
L 280.25193 307.584 
L 280.25193 298.79521 
L 277.460262 298.79521 
z
" style="fill:#0000ff;opacity:0.5;"/>
   </g>
   <g id="patch_66">
    <path clip-path="url(#pfec1dbe574)" d="M 280.744577 307.584 
L 283.536245 307.584 
L 283.536245 299.333299 
L 280.744577 299.333299 
z
" style="fill:#0000ff;opacity:0.5;"/>
   </g>
   <g id="patch_67">
    <path clip-path="url(#pfec1dbe574)" d="M 284.028892 307.584 
L 286.82056 307.584 
L 286.82056 290.54451 
L 284.028892 290.54451 
z
" style="fill:#0000ff;opacity:0.5;"/>
   </g>
   <g id="patch_68">
    <path clip-path="url(#pfec1dbe574)" d="M 287.313207 307.584 
L 290.104875 307.584 
L 290.104875 282.831898 
L 287.313207 282.831898 
z
" style="fill:#0000ff;opacity:0.5;"/>
   </g>
   <g id="patch_69">
    <path clip-path="url(#pfec1dbe574)" d="M 290.597522 307.584 
L 293.38919 307.584 
L 293.38919 260.590879 
L 290.597522 260.590879 
z
" style="fill:#0000ff;opacity:0.5;"/>
   </g>
   <g id="patch_70">
    <path clip-path="url(#pfec1dbe574)" d="M 293.881837 307.584 
L 296.673505 307.584 
L 296.673505 249.649732 
L 293.881837 249.649732 
z
" style="fill:#0000ff;opacity:0.5;"/>
   </g>
   <g id="patch_71">
    <path clip-path="url(#pfec1dbe574)" d="M 297.166153 307.584 
L 299.95782 307.584 
L 299.95782 270.993936 
L 297.166153 270.993936 
z
" style="fill:#0000ff;opacity:0.5;"/>
   </g>
   <g id="patch_72">
    <path clip-path="url(#pfec1dbe574)" d="M 300.450468 307.584 
L 303.242135 307.584 
L 303.242135 243.551389 
L 300.450468 243.551389 
z
" style="fill:#0000ff;opacity:0.5;"/>
   </g>
   <g id="patch_73">
    <path clip-path="url(#pfec1dbe574)" d="M 303.734783 307.584 
L 306.526451 307.584 
L 306.526451 287.674701 
L 303.734783 287.674701 
z
" style="fill:#0000ff;opacity:0.5;"/>
   </g>
   <g id="patch_74">
    <path clip-path="url(#pfec1dbe574)" d="M 307.019098 307.584 
L 309.810766 307.584 
L 309.810766 291.800051 
L 307.019098 291.800051 
z
" style="fill:#0000ff;opacity:0.5;"/>
   </g>
   <g id="patch_75">
    <path clip-path="url(#pfec1dbe574)" d="M 310.303413 307.584 
L 313.095081 307.584 
L 313.095081 280.500178 
L 310.303413 280.500178 
z
" style="fill:#0000ff;opacity:0.5;"/>
   </g>
   <g id="patch_76">
    <path clip-path="url(#pfec1dbe574)" d="M 313.587728 307.584 
L 316.379396 307.584 
L 316.379396 300.409478 
L 313.587728 300.409478 
z
" style="fill:#0000ff;opacity:0.5;"/>
   </g>
   <g id="patch_77">
    <path clip-path="url(#pfec1dbe574)" d="M 316.872043 307.584 
L 319.663711 307.584 
L 319.663711 300.947567 
L 316.872043 300.947567 
z
" style="fill:#0000ff;opacity:0.5;"/>
   </g>
   <g id="patch_78">
    <path clip-path="url(#pfec1dbe574)" d="M 320.156358 307.584 
L 322.948026 307.584 
L 322.948026 292.517503 
L 320.156358 292.517503 
z
" style="fill:#0000ff;opacity:0.5;"/>
   </g>
   <g id="patch_79">
    <path clip-path="url(#pfec1dbe574)" d="M 323.440673 307.584 
L 326.232341 307.584 
L 326.232341 275.29865 
L 323.440673 275.29865 
z
" style="fill:#0000ff;opacity:0.5;"/>
   </g>
   <g id="patch_80">
    <path clip-path="url(#pfec1dbe574)" d="M 326.724988 307.584 
L 329.516656 307.584 
L 329.516656 297.360306 
L 326.724988 297.360306 
z
" style="fill:#0000ff;opacity:0.5;"/>
   </g>
   <g id="patch_81">
    <path clip-path="url(#pfec1dbe574)" d="M 330.009303 307.584 
L 332.800971 307.584 
L 332.800971 299.333299 
L 330.009303 299.333299 
z
" style="fill:#0000ff;opacity:0.5;"/>
   </g>
   <g id="patch_82">
    <path clip-path="url(#pfec1dbe574)" d="M 333.293618 307.584 
L 336.085286 307.584 
L 336.085286 295.746038 
L 333.293618 295.746038 
z
" style="fill:#0000ff;opacity:0.5;"/>
   </g>
   <g id="patch_83">
    <path clip-path="url(#pfec1dbe574)" d="M 336.577934 307.584 
L 339.369601 307.584 
L 339.369601 280.141452 
L 336.577934 280.141452 
z
" style="fill:#0000ff;opacity:0.5;"/>
   </g>
   <g id="patch_84">
    <path clip-path="url(#pfec1dbe574)" d="M 339.862249 307.584 
L 342.653916 307.584 
L 342.653916 294.311134 
L 339.862249 294.311134 
z
" style="fill:#0000ff;opacity:0.5;"/>
   </g>
   <g id="patch_85">
    <path clip-path="url(#pfec1dbe574)" d="M 343.146564 307.584 
L 345.938231 307.584 
L 345.938231 298.79521 
L 343.146564 298.79521 
z
" style="fill:#0000ff;opacity:0.5;"/>
   </g>
   <g id="patch_86">
    <path clip-path="url(#pfec1dbe574)" d="M 346.430879 307.584 
L 349.222547 307.584 
L 349.222547 294.490497 
L 346.430879 294.490497 
z
" style="fill:#0000ff;opacity:0.5;"/>
   </g>
   <g id="patch_87">
    <path clip-path="url(#pfec1dbe574)" d="M 349.715194 307.584 
L 352.506862 307.584 
L 352.506862 301.485656 
L 349.715194 301.485656 
z
" style="fill:#0000ff;opacity:0.5;"/>
   </g>
   <g id="patch_88">
    <path clip-path="url(#pfec1dbe574)" d="M 352.999509 307.584 
L 355.791177 307.584 
L 355.791177 293.593682 
L 352.999509 293.593682 
z
" style="fill:#0000ff;opacity:0.5;"/>
   </g>
   <g id="patch_89">
    <path clip-path="url(#pfec1dbe574)" d="M 356.283824 307.584 
L 359.075492 307.584 
L 359.075492 297.00158 
L 356.283824 297.00158 
z
" style="fill:#0000ff;opacity:0.5;"/>
   </g>
   <g id="patch_90">
    <path clip-path="url(#pfec1dbe574)" d="M 359.568139 307.584 
L 362.359807 307.584 
L 362.359807 296.284127 
L 359.568139 296.284127 
z
" style="fill:#0000ff;opacity:0.5;"/>
   </g>
   <g id="patch_91">
    <path clip-path="url(#pfec1dbe574)" d="M 362.852454 307.584 
L 365.644122 307.584 
L 365.644122 297.719032 
L 362.852454 297.719032 
z
" style="fill:#0000ff;opacity:0.5;"/>
   </g>
   <g id="patch_92">
    <path clip-path="url(#pfec1dbe574)" d="M 366.136769 307.584 
L 368.928437 307.584 
L 368.928437 300.230115 
L 366.136769 300.230115 
z
" style="fill:#0000ff;opacity:0.5;"/>
   </g>
   <g id="patch_93">
    <path clip-path="url(#pfec1dbe574)" d="M 369.421084 307.584 
L 372.212752 307.584 
L 372.212752 298.436484 
L 369.421084 298.436484 
z
" style="fill:#0000ff;opacity:0.5;"/>
   </g>
   <g id="patch_94">
    <path clip-path="url(#pfec1dbe574)" d="M 372.705399 307.584 
L 375.497067 307.584 
L 375.497067 289.288968 
L 372.705399 289.288968 
z
" style="fill:#0000ff;opacity:0.5;"/>
   </g>
   <g id="patch_95">
    <path clip-path="url(#pfec1dbe574)" d="M 375.989714 307.584 
L 378.781382 307.584 
L 378.781382 290.54451 
L 375.989714 290.54451 
z
" style="fill:#0000ff;opacity:0.5;"/>
   </g>
   <g id="patch_96">
    <path clip-path="url(#pfec1dbe574)" d="M 379.27403 307.584 
L 382.065697 307.584 
L 382.065697 299.871389 
L 379.27403 299.871389 
z
" style="fill:#0000ff;opacity:0.5;"/>
   </g>
   <g id="patch_97">
    <path clip-path="url(#pfec1dbe574)" d="M 382.558345 307.584 
L 385.350012 307.584 
L 385.350012 300.050752 
L 382.558345 300.050752 
z
" style="fill:#0000ff;opacity:0.5;"/>
   </g>
   <g id="patch_98">
    <path clip-path="url(#pfec1dbe574)" d="M 385.84266 307.584 
L 388.634327 307.584 
L 388.634327 296.822217 
L 385.84266 296.822217 
z
" style="fill:#0000ff;opacity:0.5;"/>
   </g>
   <g id="patch_99">
    <path clip-path="url(#pfec1dbe574)" d="M 389.126975 307.584 
L 391.918643 307.584 
L 391.918643 294.490497 
L 389.126975 294.490497 
z
" style="fill:#0000ff;opacity:0.5;"/>
   </g>
   <g id="patch_100">
    <path clip-path="url(#pfec1dbe574)" d="M 392.41129 307.584 
L 395.202958 307.584 
L 395.202958 296.46349 
L 392.41129 296.46349 
z
" style="fill:#0000ff;opacity:0.5;"/>
   </g>
   <g id="patch_101">
    <path clip-path="url(#pfec1dbe574)" d="M 395.695605 307.584 
L 398.487273 307.584 
L 398.487273 270.814573 
L 395.695605 270.814573 
z
" style="fill:#0000ff;opacity:0.5;"/>
   </g>
   <g id="patch_102">
    <path clip-path="url(#pfec1dbe574)" d="M 73.832727 307.584 
L 76.624395 307.584 
L 76.624395 290.723873 
L 73.832727 290.723873 
z
" style="fill:#ff0000;opacity:0.5;"/>
   </g>
   <g id="patch_103">
    <path clip-path="url(#pfec1dbe574)" d="M 77.117042 307.584 
L 79.90871 307.584 
L 79.90871 250.725911 
L 77.117042 250.725911 
z
" style="fill:#ff0000;opacity:0.5;"/>
   </g>
   <g id="patch_104">
    <path clip-path="url(#pfec1dbe574)" d="M 80.401357 307.584 
L 83.193025 307.584 
L 83.193025 192.791643 
L 80.401357 192.791643 
z
" style="fill:#ff0000;opacity:0.5;"/>
   </g>
   <g id="patch_105">
    <path clip-path="url(#pfec1dbe574)" d="M 83.685673 307.584 
L 86.47734 307.584 
L 86.47734 141.852535 
L 83.685673 141.852535 
z
" style="fill:#ff0000;opacity:0.5;"/>
   </g>
   <g id="patch_106">
    <path clip-path="url(#pfec1dbe574)" d="M 86.969988 307.584 
L 89.761655 307.584 
L 89.761655 110.822726 
L 86.969988 110.822726 
z
" style="fill:#ff0000;opacity:0.5;"/>
   </g>
   <g id="patch_107">
    <path clip-path="url(#pfec1dbe574)" d="M 90.254303 307.584 
L 93.04597 307.584 
L 93.04597 98.446675 
L 90.254303 98.446675 
z
" style="fill:#ff0000;opacity:0.5;"/>
   </g>
   <g id="patch_108">
    <path clip-path="url(#pfec1dbe574)" d="M 93.538618 307.584 
L 96.330286 307.584 
L 96.330286 54.144 
L 93.538618 54.144 
z
" style="fill:#ff0000;opacity:0.5;"/>
   </g>
   <g id="patch_109">
    <path clip-path="url(#pfec1dbe574)" d="M 96.822933 307.584 
L 99.614601 307.584 
L 99.614601 120.508331 
L 96.822933 120.508331 
z
" style="fill:#ff0000;opacity:0.5;"/>
   </g>
   <g id="patch_110">
    <path clip-path="url(#pfec1dbe574)" d="M 100.107248 307.584 
L 102.898916 307.584 
L 102.898916 214.135847 
L 100.107248 214.135847 
z
" style="fill:#ff0000;opacity:0.5;"/>
   </g>
   <g id="patch_111">
    <path clip-path="url(#pfec1dbe574)" d="M 103.391563 307.584 
L 106.183231 307.584 
L 106.183231 274.581197 
L 103.391563 274.581197 
z
" style="fill:#ff0000;opacity:0.5;"/>
   </g>
   <g id="patch_112">
    <path clip-path="url(#pfec1dbe574)" d="M 106.675878 307.584 
L 109.467546 307.584 
L 109.467546 297.360306 
L 106.675878 297.360306 
z
" style="fill:#ff0000;opacity:0.5;"/>
   </g>
   <g id="patch_113">
    <path clip-path="url(#pfec1dbe574)" d="M 109.960193 307.584 
L 112.751861 307.584 
L 112.751861 306.866548 
L 109.960193 306.866548 
z
" style="fill:#ff0000;opacity:0.5;"/>
   </g>
   <g id="patch_114">
    <path clip-path="url(#pfec1dbe574)" d="M 113.244508 307.584 
L 116.036176 307.584 
L 116.036176 307.584 
L 113.244508 307.584 
z
" style="fill:#ff0000;opacity:0.5;"/>
   </g>
   <g id="patch_115">
    <path clip-path="url(#pfec1dbe574)" d="M 116.528823 307.584 
L 119.320491 307.584 
L 119.320491 307.584 
L 116.528823 307.584 
z
" style="fill:#ff0000;opacity:0.5;"/>
   </g>
   <g id="patch_116">
    <path clip-path="url(#pfec1dbe574)" d="M 119.813138 307.584 
L 122.604806 307.584 
L 122.604806 307.584 
L 119.813138 307.584 
z
" style="fill:#ff0000;opacity:0.5;"/>
   </g>
   <g id="patch_117">
    <path clip-path="url(#pfec1dbe574)" d="M 123.097453 307.584 
L 125.889121 307.584 
L 125.889121 307.584 
L 123.097453 307.584 
z
" style="fill:#ff0000;opacity:0.5;"/>
   </g>
   <g id="patch_118">
    <path clip-path="url(#pfec1dbe574)" d="M 126.381769 307.584 
L 129.173436 307.584 
L 129.173436 307.584 
L 126.381769 307.584 
z
" style="fill:#ff0000;opacity:0.5;"/>
   </g>
   <g id="patch_119">
    <path clip-path="url(#pfec1dbe574)" d="M 129.666084 307.584 
L 132.457751 307.584 
L 132.457751 307.584 
L 129.666084 307.584 
z
" style="fill:#ff0000;opacity:0.5;"/>
   </g>
   <g id="patch_120">
    <path clip-path="url(#pfec1dbe574)" d="M 132.950399 307.584 
L 135.742066 307.584 
L 135.742066 307.584 
L 132.950399 307.584 
z
" style="fill:#ff0000;opacity:0.5;"/>
   </g>
   <g id="patch_121">
    <path clip-path="url(#pfec1dbe574)" d="M 136.234714 307.584 
L 139.026382 307.584 
L 139.026382 307.584 
L 136.234714 307.584 
z
" style="fill:#ff0000;opacity:0.5;"/>
   </g>
   <g id="patch_122">
    <path clip-path="url(#pfec1dbe574)" d="M 139.519029 307.584 
L 142.310697 307.584 
L 142.310697 307.584 
L 139.519029 307.584 
z
" style="fill:#ff0000;opacity:0.5;"/>
   </g>
   <g id="patch_123">
    <path clip-path="url(#pfec1dbe574)" d="M 142.803344 307.584 
L 145.595012 307.584 
L 145.595012 307.584 
L 142.803344 307.584 
z
" style="fill:#ff0000;opacity:0.5;"/>
   </g>
   <g id="patch_124">
    <path clip-path="url(#pfec1dbe574)" d="M 146.087659 307.584 
L 148.879327 307.584 
L 148.879327 307.584 
L 146.087659 307.584 
z
" style="fill:#ff0000;opacity:0.5;"/>
   </g>
   <g id="patch_125">
    <path clip-path="url(#pfec1dbe574)" d="M 149.371974 307.584 
L 152.163642 307.584 
L 152.163642 307.584 
L 149.371974 307.584 
z
" style="fill:#ff0000;opacity:0.5;"/>
   </g>
   <g id="patch_126">
    <path clip-path="url(#pfec1dbe574)" d="M 152.656289 307.584 
L 155.447957 307.584 
L 155.447957 307.584 
L 152.656289 307.584 
z
" style="fill:#ff0000;opacity:0.5;"/>
   </g>
   <g id="patch_127">
    <path clip-path="url(#pfec1dbe574)" d="M 155.940604 307.584 
L 158.732272 307.584 
L 158.732272 307.584 
L 155.940604 307.584 
z
" style="fill:#ff0000;opacity:0.5;"/>
   </g>
   <g id="patch_128">
    <path clip-path="url(#pfec1dbe574)" d="M 159.224919 307.584 
L 162.016587 307.584 
L 162.016587 307.584 
L 159.224919 307.584 
z
" style="fill:#ff0000;opacity:0.5;"/>
   </g>
   <g id="patch_129">
    <path clip-path="url(#pfec1dbe574)" d="M 162.509234 307.584 
L 165.300902 307.584 
L 165.300902 307.584 
L 162.509234 307.584 
z
" style="fill:#ff0000;opacity:0.5;"/>
   </g>
   <g id="patch_130">
    <path clip-path="url(#pfec1dbe574)" d="M 165.793549 307.584 
L 168.585217 307.584 
L 168.585217 307.584 
L 165.793549 307.584 
z
" style="fill:#ff0000;opacity:0.5;"/>
   </g>
   <g id="patch_131">
    <path clip-path="url(#pfec1dbe574)" d="M 169.077865 307.584 
L 171.869532 307.584 
L 171.869532 307.584 
L 169.077865 307.584 
z
" style="fill:#ff0000;opacity:0.5;"/>
   </g>
   <g id="patch_132">
    <path clip-path="url(#pfec1dbe574)" d="M 172.36218 307.584 
L 175.153847 307.584 
L 175.153847 307.584 
L 172.36218 307.584 
z
" style="fill:#ff0000;opacity:0.5;"/>
   </g>
   <g id="patch_133">
    <path clip-path="url(#pfec1dbe574)" d="M 175.646495 307.584 
L 178.438163 307.584 
L 178.438163 307.584 
L 175.646495 307.584 
z
" style="fill:#ff0000;opacity:0.5;"/>
   </g>
   <g id="patch_134">
    <path clip-path="url(#pfec1dbe574)" d="M 178.93081 307.584 
L 181.722478 307.584 
L 181.722478 307.584 
L 178.93081 307.584 
z
" style="fill:#ff0000;opacity:0.5;"/>
   </g>
   <g id="patch_135">
    <path clip-path="url(#pfec1dbe574)" d="M 182.215125 307.584 
L 185.006793 307.584 
L 185.006793 307.584 
L 182.215125 307.584 
z
" style="fill:#ff0000;opacity:0.5;"/>
   </g>
   <g id="patch_136">
    <path clip-path="url(#pfec1dbe574)" d="M 185.49944 307.584 
L 188.291108 307.584 
L 188.291108 307.584 
L 185.49944 307.584 
z
" style="fill:#ff0000;opacity:0.5;"/>
   </g>
   <g id="patch_137">
    <path clip-path="url(#pfec1dbe574)" d="M 188.783755 307.584 
L 191.575423 307.584 
L 191.575423 307.584 
L 188.783755 307.584 
z
" style="fill:#ff0000;opacity:0.5;"/>
   </g>
   <g id="patch_138">
    <path clip-path="url(#pfec1dbe574)" d="M 192.06807 307.584 
L 194.859738 307.584 
L 194.859738 307.584 
L 192.06807 307.584 
z
" style="fill:#ff0000;opacity:0.5;"/>
   </g>
   <g id="patch_139">
    <path clip-path="url(#pfec1dbe574)" d="M 195.352385 307.584 
L 198.144053 307.584 
L 198.144053 307.584 
L 195.352385 307.584 
z
" style="fill:#ff0000;opacity:0.5;"/>
   </g>
   <g id="patch_140">
    <path clip-path="url(#pfec1dbe574)" d="M 198.6367 307.584 
L 201.428368 307.584 
L 201.428368 307.584 
L 198.6367 307.584 
z
" style="fill:#ff0000;opacity:0.5;"/>
   </g>
   <g id="patch_141">
    <path clip-path="url(#pfec1dbe574)" d="M 201.921015 307.584 
L 204.712683 307.584 
L 204.712683 307.584 
L 201.921015 307.584 
z
" style="fill:#ff0000;opacity:0.5;"/>
   </g>
   <g id="patch_142">
    <path clip-path="url(#pfec1dbe574)" d="M 205.20533 307.584 
L 207.996998 307.584 
L 207.996998 307.584 
L 205.20533 307.584 
z
" style="fill:#ff0000;opacity:0.5;"/>
   </g>
   <g id="patch_143">
    <path clip-path="url(#pfec1dbe574)" d="M 208.489645 307.584 
L 211.281313 307.584 
L 211.281313 307.584 
L 208.489645 307.584 
z
" style="fill:#ff0000;opacity:0.5;"/>
   </g>
   <g id="patch_144">
    <path clip-path="url(#pfec1dbe574)" d="M 211.773961 307.584 
L 214.565628 307.584 
L 214.565628 307.584 
L 211.773961 307.584 
z
" style="fill:#ff0000;opacity:0.5;"/>
   </g>
   <g id="patch_145">
    <path clip-path="url(#pfec1dbe574)" d="M 215.058276 307.584 
L 217.849943 307.584 
L 217.849943 307.584 
L 215.058276 307.584 
z
" style="fill:#ff0000;opacity:0.5;"/>
   </g>
   <g id="patch_146">
    <path clip-path="url(#pfec1dbe574)" d="M 218.342591 307.584 
L 221.134259 307.584 
L 221.134259 307.584 
L 218.342591 307.584 
z
" style="fill:#ff0000;opacity:0.5;"/>
   </g>
   <g id="patch_147">
    <path clip-path="url(#pfec1dbe574)" d="M 221.626906 307.584 
L 224.418574 307.584 
L 224.418574 307.584 
L 221.626906 307.584 
z
" style="fill:#ff0000;opacity:0.5;"/>
   </g>
   <g id="patch_148">
    <path clip-path="url(#pfec1dbe574)" d="M 224.911221 307.584 
L 227.702889 307.584 
L 227.702889 307.584 
L 224.911221 307.584 
z
" style="fill:#ff0000;opacity:0.5;"/>
   </g>
   <g id="patch_149">
    <path clip-path="url(#pfec1dbe574)" d="M 228.195536 307.584 
L 230.987204 307.584 
L 230.987204 307.584 
L 228.195536 307.584 
z
" style="fill:#ff0000;opacity:0.5;"/>
   </g>
   <g id="patch_150">
    <path clip-path="url(#pfec1dbe574)" d="M 231.479851 307.584 
L 234.271519 307.584 
L 234.271519 307.584 
L 231.479851 307.584 
z
" style="fill:#ff0000;opacity:0.5;"/>
   </g>
   <g id="patch_151">
    <path clip-path="url(#pfec1dbe574)" d="M 234.764166 307.584 
L 237.555834 307.584 
L 237.555834 307.584 
L 234.764166 307.584 
z
" style="fill:#ff0000;opacity:0.5;"/>
   </g>
   <g id="patch_152">
    <path clip-path="url(#pfec1dbe574)" d="M 238.048481 307.584 
L 240.840149 307.584 
L 240.840149 307.584 
L 238.048481 307.584 
z
" style="fill:#ff0000;opacity:0.5;"/>
   </g>
   <g id="patch_153">
    <path clip-path="url(#pfec1dbe574)" d="M 241.332796 307.584 
L 244.124464 307.584 
L 244.124464 307.584 
L 241.332796 307.584 
z
" style="fill:#ff0000;opacity:0.5;"/>
   </g>
   <g id="patch_154">
    <path clip-path="url(#pfec1dbe574)" d="M 244.617111 307.584 
L 247.408779 307.584 
L 247.408779 307.584 
L 244.617111 307.584 
z
" style="fill:#ff0000;opacity:0.5;"/>
   </g>
   <g id="patch_155">
    <path clip-path="url(#pfec1dbe574)" d="M 247.901426 307.584 
L 250.693094 307.584 
L 250.693094 307.584 
L 247.901426 307.584 
z
" style="fill:#ff0000;opacity:0.5;"/>
   </g>
   <g id="patch_156">
    <path clip-path="url(#pfec1dbe574)" d="M 251.185741 307.584 
L 253.977409 307.584 
L 253.977409 307.584 
L 251.185741 307.584 
z
" style="fill:#ff0000;opacity:0.5;"/>
   </g>
   <g id="patch_157">
    <path clip-path="url(#pfec1dbe574)" d="M 254.470057 307.584 
L 257.261724 307.584 
L 257.261724 307.584 
L 254.470057 307.584 
z
" style="fill:#ff0000;opacity:0.5;"/>
   </g>
   <g id="patch_158">
    <path clip-path="url(#pfec1dbe574)" d="M 257.754372 307.584 
L 260.546039 307.584 
L 260.546039 307.584 
L 257.754372 307.584 
z
" style="fill:#ff0000;opacity:0.5;"/>
   </g>
   <g id="patch_159">
    <path clip-path="url(#pfec1dbe574)" d="M 261.038687 307.584 
L 263.830355 307.584 
L 263.830355 307.584 
L 261.038687 307.584 
z
" style="fill:#ff0000;opacity:0.5;"/>
   </g>
   <g id="patch_160">
    <path clip-path="url(#pfec1dbe574)" d="M 264.323002 307.584 
L 267.11467 307.584 
L 267.11467 307.584 
L 264.323002 307.584 
z
" style="fill:#ff0000;opacity:0.5;"/>
   </g>
   <g id="patch_161">
    <path clip-path="url(#pfec1dbe574)" d="M 267.607317 307.584 
L 270.398985 307.584 
L 270.398985 307.584 
L 267.607317 307.584 
z
" style="fill:#ff0000;opacity:0.5;"/>
   </g>
   <g id="patch_162">
    <path clip-path="url(#pfec1dbe574)" d="M 270.891632 307.584 
L 273.6833 307.584 
L 273.6833 307.584 
L 270.891632 307.584 
z
" style="fill:#ff0000;opacity:0.5;"/>
   </g>
   <g id="patch_163">
    <path clip-path="url(#pfec1dbe574)" d="M 274.175947 307.584 
L 276.967615 307.584 
L 276.967615 307.584 
L 274.175947 307.584 
z
" style="fill:#ff0000;opacity:0.5;"/>
   </g>
   <g id="patch_164">
    <path clip-path="url(#pfec1dbe574)" d="M 277.460262 307.584 
L 280.25193 307.584 
L 280.25193 307.584 
L 277.460262 307.584 
z
" style="fill:#ff0000;opacity:0.5;"/>
   </g>
   <g id="patch_165">
    <path clip-path="url(#pfec1dbe574)" d="M 280.744577 307.584 
L 283.536245 307.584 
L 283.536245 307.584 
L 280.744577 307.584 
z
" style="fill:#ff0000;opacity:0.5;"/>
   </g>
   <g id="patch_166">
    <path clip-path="url(#pfec1dbe574)" d="M 284.028892 307.584 
L 286.82056 307.584 
L 286.82056 307.584 
L 284.028892 307.584 
z
" style="fill:#ff0000;opacity:0.5;"/>
   </g>
   <g id="patch_167">
    <path clip-path="url(#pfec1dbe574)" d="M 287.313207 307.584 
L 290.104875 307.584 
L 290.104875 307.584 
L 287.313207 307.584 
z
" style="fill:#ff0000;opacity:0.5;"/>
   </g>
   <g id="patch_168">
    <path clip-path="url(#pfec1dbe574)" d="M 290.597522 307.584 
L 293.38919 307.584 
L 293.38919 307.584 
L 290.597522 307.584 
z
" style="fill:#ff0000;opacity:0.5;"/>
   </g>
   <g id="patch_169">
    <path clip-path="url(#pfec1dbe574)" d="M 293.881837 307.584 
L 296.673505 307.584 
L 296.673505 307.584 
L 293.881837 307.584 
z
" style="fill:#ff0000;opacity:0.5;"/>
   </g>
   <g id="patch_170">
    <path clip-path="url(#pfec1dbe574)" d="M 297.166153 307.584 
L 299.95782 307.584 
L 299.95782 307.584 
L 297.166153 307.584 
z
" style="fill:#ff0000;opacity:0.5;"/>
   </g>
   <g id="patch_171">
    <path clip-path="url(#pfec1dbe574)" d="M 300.450468 307.584 
L 303.242135 307.584 
L 303.242135 307.584 
L 300.450468 307.584 
z
" style="fill:#ff0000;opacity:0.5;"/>
   </g>
   <g id="patch_172">
    <path clip-path="url(#pfec1dbe574)" d="M 303.734783 307.584 
L 306.526451 307.584 
L 306.526451 307.584 
L 303.734783 307.584 
z
" style="fill:#ff0000;opacity:0.5;"/>
   </g>
   <g id="patch_173">
    <path clip-path="url(#pfec1dbe574)" d="M 307.019098 307.584 
L 309.810766 307.584 
L 309.810766 307.584 
L 307.019098 307.584 
z
" style="fill:#ff0000;opacity:0.5;"/>
   </g>
   <g id="patch_174">
    <path clip-path="url(#pfec1dbe574)" d="M 310.303413 307.584 
L 313.095081 307.584 
L 313.095081 307.584 
L 310.303413 307.584 
z
" style="fill:#ff0000;opacity:0.5;"/>
   </g>
   <g id="patch_175">
    <path clip-path="url(#pfec1dbe574)" d="M 313.587728 307.584 
L 316.379396 307.584 
L 316.379396 307.584 
L 313.587728 307.584 
z
" style="fill:#ff0000;opacity:0.5;"/>
   </g>
   <g id="patch_176">
    <path clip-path="url(#pfec1dbe574)" d="M 316.872043 307.584 
L 319.663711 307.584 
L 319.663711 307.584 
L 316.872043 307.584 
z
" style="fill:#ff0000;opacity:0.5;"/>
   </g>
   <g id="patch_177">
    <path clip-path="url(#pfec1dbe574)" d="M 320.156358 307.584 
L 322.948026 307.584 
L 322.948026 307.584 
L 320.156358 307.584 
z
" style="fill:#ff0000;opacity:0.5;"/>
   </g>
   <g id="patch_178">
    <path clip-path="url(#pfec1dbe574)" d="M 323.440673 307.584 
L 326.232341 307.584 
L 326.232341 307.584 
L 323.440673 307.584 
z
" style="fill:#ff0000;opacity:0.5;"/>
   </g>
   <g id="patch_179">
    <path clip-path="url(#pfec1dbe574)" d="M 326.724988 307.584 
L 329.516656 307.584 
L 329.516656 307.584 
L 326.724988 307.584 
z
" style="fill:#ff0000;opacity:0.5;"/>
   </g>
   <g id="patch_180">
    <path clip-path="url(#pfec1dbe574)" d="M 330.009303 307.584 
L 332.800971 307.584 
L 332.800971 307.584 
L 330.009303 307.584 
z
" style="fill:#ff0000;opacity:0.5;"/>
   </g>
   <g id="patch_181">
    <path clip-path="url(#pfec1dbe574)" d="M 333.293618 307.584 
L 336.085286 307.584 
L 336.085286 307.584 
L 333.293618 307.584 
z
" style="fill:#ff0000;opacity:0.5;"/>
   </g>
   <g id="patch_182">
    <path clip-path="url(#pfec1dbe574)" d="M 336.577934 307.584 
L 339.369601 307.584 
L 339.369601 307.584 
L 336.577934 307.584 
z
" style="fill:#ff0000;opacity:0.5;"/>
   </g>
   <g id="patch_183">
    <path clip-path="url(#pfec1dbe574)" d="M 339.862249 307.584 
L 342.653916 307.584 
L 342.653916 307.584 
L 339.862249 307.584 
z
" style="fill:#ff0000;opacity:0.5;"/>
   </g>
   <g id="patch_184">
    <path clip-path="url(#pfec1dbe574)" d="M 343.146564 307.584 
L 345.938231 307.584 
L 345.938231 307.584 
L 343.146564 307.584 
z
" style="fill:#ff0000;opacity:0.5;"/>
   </g>
   <g id="patch_185">
    <path clip-path="url(#pfec1dbe574)" d="M 346.430879 307.584 
L 349.222547 307.584 
L 349.222547 307.584 
L 346.430879 307.584 
z
" style="fill:#ff0000;opacity:0.5;"/>
   </g>
   <g id="patch_186">
    <path clip-path="url(#pfec1dbe574)" d="M 349.715194 307.584 
L 352.506862 307.584 
L 352.506862 307.584 
L 349.715194 307.584 
z
" style="fill:#ff0000;opacity:0.5;"/>
   </g>
   <g id="patch_187">
    <path clip-path="url(#pfec1dbe574)" d="M 352.999509 307.584 
L 355.791177 307.584 
L 355.791177 307.584 
L 352.999509 307.584 
z
" style="fill:#ff0000;opacity:0.5;"/>
   </g>
   <g id="patch_188">
    <path clip-path="url(#pfec1dbe574)" d="M 356.283824 307.584 
L 359.075492 307.584 
L 359.075492 307.584 
L 356.283824 307.584 
z
" style="fill:#ff0000;opacity:0.5;"/>
   </g>
   <g id="patch_189">
    <path clip-path="url(#pfec1dbe574)" d="M 359.568139 307.584 
L 362.359807 307.584 
L 362.359807 307.584 
L 359.568139 307.584 
z
" style="fill:#ff0000;opacity:0.5;"/>
   </g>
   <g id="patch_190">
    <path clip-path="url(#pfec1dbe574)" d="M 362.852454 307.584 
L 365.644122 307.584 
L 365.644122 307.584 
L 362.852454 307.584 
z
" style="fill:#ff0000;opacity:0.5;"/>
   </g>
   <g id="patch_191">
    <path clip-path="url(#pfec1dbe574)" d="M 366.136769 307.584 
L 368.928437 307.584 
L 368.928437 307.584 
L 366.136769 307.584 
z
" style="fill:#ff0000;opacity:0.5;"/>
   </g>
   <g id="patch_192">
    <path clip-path="url(#pfec1dbe574)" d="M 369.421084 307.584 
L 372.212752 307.584 
L 372.212752 307.584 
L 369.421084 307.584 
z
" style="fill:#ff0000;opacity:0.5;"/>
   </g>
   <g id="patch_193">
    <path clip-path="url(#pfec1dbe574)" d="M 372.705399 307.584 
L 375.497067 307.584 
L 375.497067 307.584 
L 372.705399 307.584 
z
" style="fill:#ff0000;opacity:0.5;"/>
   </g>
   <g id="patch_194">
    <path clip-path="url(#pfec1dbe574)" d="M 375.989714 307.584 
L 378.781382 307.584 
L 378.781382 307.584 
L 375.989714 307.584 
z
" style="fill:#ff0000;opacity:0.5;"/>
   </g>
   <g id="patch_195">
    <path clip-path="url(#pfec1dbe574)" d="M 379.27403 307.584 
L 382.065697 307.584 
L 382.065697 307.584 
L 379.27403 307.584 
z
" style="fill:#ff0000;opacity:0.5;"/>
   </g>
   <g id="patch_196">
    <path clip-path="url(#pfec1dbe574)" d="M 382.558345 307.584 
L 385.350012 307.584 
L 385.350012 307.584 
L 382.558345 307.584 
z
" style="fill:#ff0000;opacity:0.5;"/>
   </g>
   <g id="patch_197">
    <path clip-path="url(#pfec1dbe574)" d="M 385.84266 307.584 
L 388.634327 307.584 
L 388.634327 307.584 
L 385.84266 307.584 
z
" style="fill:#ff0000;opacity:0.5;"/>
   </g>
   <g id="patch_198">
    <path clip-path="url(#pfec1dbe574)" d="M 389.126975 307.584 
L 391.918643 307.584 
L 391.918643 307.584 
L 389.126975 307.584 
z
" style="fill:#ff0000;opacity:0.5;"/>
   </g>
   <g id="patch_199">
    <path clip-path="url(#pfec1dbe574)" d="M 392.41129 307.584 
L 395.202958 307.584 
L 395.202958 307.584 
L 392.41129 307.584 
z
" style="fill:#ff0000;opacity:0.5;"/>
   </g>
   <g id="patch_200">
    <path clip-path="url(#pfec1dbe574)" d="M 395.695605 307.584 
L 398.487273 307.584 
L 398.487273 307.584 
L 395.695605 307.584 
z
" style="fill:#ff0000;opacity:0.5;"/>
   </g>
   <g id="matplotlib.axis_1">
    <g id="xtick_1">
     <g id="line2d_1">
      <defs>
       <path d="M 0 0 
L 0 3.5 
" id="m82b29db93e" style="stroke:#000000;stroke-width:0.8;"/>
      </defs>
      <g>
       <use style="stroke:#000000;stroke-width:0.8;" x="73.586404" xlink:href="#m82b29db93e" y="307.584"/>
      </g>
     </g>
     <g id="text_1">
      <!-- 0.00 -->
      <defs>
       <path d="M 31.78125 66.40625 
Q 24.171875 66.40625 20.328125 58.90625 
Q 16.5 51.421875 16.5 36.375 
Q 16.5 21.390625 20.328125 13.890625 
Q 24.171875 6.390625 31.78125 6.390625 
Q 39.453125 6.390625 43.28125 13.890625 
Q 47.125 21.390625 47.125 36.375 
Q 47.125 51.421875 43.28125 58.90625 
Q 39.453125 66.40625 31.78125 66.40625 
z
M 31.78125 74.21875 
Q 44.046875 74.21875 50.515625 64.515625 
Q 56.984375 54.828125 56.984375 36.375 
Q 56.984375 17.96875 50.515625 8.265625 
Q 44.046875 -1.421875 31.78125 -1.421875 
Q 19.53125 -1.421875 13.0625 8.265625 
Q 6.59375 17.96875 6.59375 36.375 
Q 6.59375 54.828125 13.0625 64.515625 
Q 19.53125 74.21875 31.78125 74.21875 
z
" id="DejaVuSans-48"/>
       <path d="M 10.6875 12.40625 
L 21 12.40625 
L 21 0 
L 10.6875 0 
z
" id="DejaVuSans-46"/>
      </defs>
      <g transform="translate(62.453591 322.182437)scale(0.1 -0.1)">
       <use xlink:href="#DejaVuSans-48"/>
       <use x="63.623047" xlink:href="#DejaVuSans-46"/>
       <use x="95.410156" xlink:href="#DejaVuSans-48"/>
       <use x="159.033203" xlink:href="#DejaVuSans-48"/>
      </g>
     </g>
    </g>
    <g id="xtick_2">
     <g id="line2d_2">
      <g>
       <use style="stroke:#000000;stroke-width:0.8;" x="127.777602" xlink:href="#m82b29db93e" y="307.584"/>
      </g>
     </g>
     <g id="text_2">
      <!-- 0.02 -->
      <defs>
       <path d="M 19.1875 8.296875 
L 53.609375 8.296875 
L 53.609375 0 
L 7.328125 0 
L 7.328125 8.296875 
Q 12.9375 14.109375 22.625 23.890625 
Q 32.328125 33.6875 34.8125 36.53125 
Q 39.546875 41.84375 41.421875 45.53125 
Q 43.3125 49.21875 43.3125 52.78125 
Q 43.3125 58.59375 39.234375 62.25 
Q 35.15625 65.921875 28.609375 65.921875 
Q 23.96875 65.921875 18.8125 64.3125 
Q 13.671875 62.703125 7.8125 59.421875 
L 7.8125 69.390625 
Q 13.765625 71.78125 18.9375 73 
Q 24.125 74.21875 28.421875 74.21875 
Q 39.75 74.21875 46.484375 68.546875 
Q 53.21875 62.890625 53.21875 53.421875 
Q 53.21875 48.921875 51.53125 44.890625 
Q 49.859375 40.875 45.40625 35.40625 
Q 44.1875 33.984375 37.640625 27.21875 
Q 31.109375 20.453125 19.1875 8.296875 
z
" id="DejaVuSans-50"/>
      </defs>
      <g transform="translate(116.64479 322.182437)scale(0.1 -0.1)">
       <use xlink:href="#DejaVuSans-48"/>
       <use x="63.623047" xlink:href="#DejaVuSans-46"/>
       <use x="95.410156" xlink:href="#DejaVuSans-48"/>
       <use x="159.033203" xlink:href="#DejaVuSans-50"/>
      </g>
     </g>
    </g>
    <g id="xtick_3">
     <g id="line2d_3">
      <g>
       <use style="stroke:#000000;stroke-width:0.8;" x="181.968801" xlink:href="#m82b29db93e" y="307.584"/>
      </g>
     </g>
     <g id="text_3">
      <!-- 0.04 -->
      <defs>
       <path d="M 37.796875 64.3125 
L 12.890625 25.390625 
L 37.796875 25.390625 
z
M 35.203125 72.90625 
L 47.609375 72.90625 
L 47.609375 25.390625 
L 58.015625 25.390625 
L 58.015625 17.1875 
L 47.609375 17.1875 
L 47.609375 0 
L 37.796875 0 
L 37.796875 17.1875 
L 4.890625 17.1875 
L 4.890625 26.703125 
z
" id="DejaVuSans-52"/>
      </defs>
      <g transform="translate(170.835989 322.182437)scale(0.1 -0.1)">
       <use xlink:href="#DejaVuSans-48"/>
       <use x="63.623047" xlink:href="#DejaVuSans-46"/>
       <use x="95.410156" xlink:href="#DejaVuSans-48"/>
       <use x="159.033203" xlink:href="#DejaVuSans-52"/>
      </g>
     </g>
    </g>
    <g id="xtick_4">
     <g id="line2d_4">
      <g>
       <use style="stroke:#000000;stroke-width:0.8;" x="236.16" xlink:href="#m82b29db93e" y="307.584"/>
      </g>
     </g>
     <g id="text_4">
      <!-- 0.06 -->
      <defs>
       <path d="M 33.015625 40.375 
Q 26.375 40.375 22.484375 35.828125 
Q 18.609375 31.296875 18.609375 23.390625 
Q 18.609375 15.53125 22.484375 10.953125 
Q 26.375 6.390625 33.015625 6.390625 
Q 39.65625 6.390625 43.53125 10.953125 
Q 47.40625 15.53125 47.40625 23.390625 
Q 47.40625 31.296875 43.53125 35.828125 
Q 39.65625 40.375 33.015625 40.375 
z
M 52.59375 71.296875 
L 52.59375 62.3125 
Q 48.875 64.0625 45.09375 64.984375 
Q 41.3125 65.921875 37.59375 65.921875 
Q 27.828125 65.921875 22.671875 59.328125 
Q 17.53125 52.734375 16.796875 39.40625 
Q 19.671875 43.65625 24.015625 45.921875 
Q 28.375 48.1875 33.59375 48.1875 
Q 44.578125 48.1875 50.953125 41.515625 
Q 57.328125 34.859375 57.328125 23.390625 
Q 57.328125 12.15625 50.6875 5.359375 
Q 44.046875 -1.421875 33.015625 -1.421875 
Q 20.359375 -1.421875 13.671875 8.265625 
Q 6.984375 17.96875 6.984375 36.375 
Q 6.984375 53.65625 15.1875 63.9375 
Q 23.390625 74.21875 37.203125 74.21875 
Q 40.921875 74.21875 44.703125 73.484375 
Q 48.484375 72.75 52.59375 71.296875 
z
" id="DejaVuSans-54"/>
      </defs>
      <g transform="translate(225.027188 322.182437)scale(0.1 -0.1)">
       <use xlink:href="#DejaVuSans-48"/>
       <use x="63.623047" xlink:href="#DejaVuSans-46"/>
       <use x="95.410156" xlink:href="#DejaVuSans-48"/>
       <use x="159.033203" xlink:href="#DejaVuSans-54"/>
      </g>
     </g>
    </g>
    <g id="xtick_5">
     <g id="line2d_5">
      <g>
       <use style="stroke:#000000;stroke-width:0.8;" x="290.351199" xlink:href="#m82b29db93e" y="307.584"/>
      </g>
     </g>
     <g id="text_5">
      <!-- 0.08 -->
      <defs>
       <path d="M 31.78125 34.625 
Q 24.75 34.625 20.71875 30.859375 
Q 16.703125 27.09375 16.703125 20.515625 
Q 16.703125 13.921875 20.71875 10.15625 
Q 24.75 6.390625 31.78125 6.390625 
Q 38.8125 6.390625 42.859375 10.171875 
Q 46.921875 13.96875 46.921875 20.515625 
Q 46.921875 27.09375 42.890625 30.859375 
Q 38.875 34.625 31.78125 34.625 
z
M 21.921875 38.8125 
Q 15.578125 40.375 12.03125 44.71875 
Q 8.5 49.078125 8.5 55.328125 
Q 8.5 64.0625 14.71875 69.140625 
Q 20.953125 74.21875 31.78125 74.21875 
Q 42.671875 74.21875 48.875 69.140625 
Q 55.078125 64.0625 55.078125 55.328125 
Q 55.078125 49.078125 51.53125 44.71875 
Q 48 40.375 41.703125 38.8125 
Q 48.828125 37.15625 52.796875 32.3125 
Q 56.78125 27.484375 56.78125 20.515625 
Q 56.78125 9.90625 50.3125 4.234375 
Q 43.84375 -1.421875 31.78125 -1.421875 
Q 19.734375 -1.421875 13.25 4.234375 
Q 6.78125 9.90625 6.78125 20.515625 
Q 6.78125 27.484375 10.78125 32.3125 
Q 14.796875 37.15625 21.921875 38.8125 
z
M 18.3125 54.390625 
Q 18.3125 48.734375 21.84375 45.5625 
Q 25.390625 42.390625 31.78125 42.390625 
Q 38.140625 42.390625 41.71875 45.5625 
Q 45.3125 48.734375 45.3125 54.390625 
Q 45.3125 60.0625 41.71875 63.234375 
Q 38.140625 66.40625 31.78125 66.40625 
Q 25.390625 66.40625 21.84375 63.234375 
Q 18.3125 60.0625 18.3125 54.390625 
z
" id="DejaVuSans-56"/>
      </defs>
      <g transform="translate(279.218386 322.182437)scale(0.1 -0.1)">
       <use xlink:href="#DejaVuSans-48"/>
       <use x="63.623047" xlink:href="#DejaVuSans-46"/>
       <use x="95.410156" xlink:href="#DejaVuSans-48"/>
       <use x="159.033203" xlink:href="#DejaVuSans-56"/>
      </g>
     </g>
    </g>
    <g id="xtick_6">
     <g id="line2d_6">
      <g>
       <use style="stroke:#000000;stroke-width:0.8;" x="344.542398" xlink:href="#m82b29db93e" y="307.584"/>
      </g>
     </g>
     <g id="text_6">
      <!-- 0.10 -->
      <defs>
       <path d="M 12.40625 8.296875 
L 28.515625 8.296875 
L 28.515625 63.921875 
L 10.984375 60.40625 
L 10.984375 69.390625 
L 28.421875 72.90625 
L 38.28125 72.90625 
L 38.28125 8.296875 
L 54.390625 8.296875 
L 54.390625 0 
L 12.40625 0 
z
" id="DejaVuSans-49"/>
      </defs>
      <g transform="translate(333.409585 322.182437)scale(0.1 -0.1)">
       <use xlink:href="#DejaVuSans-48"/>
       <use x="63.623047" xlink:href="#DejaVuSans-46"/>
       <use x="95.410156" xlink:href="#DejaVuSans-49"/>
       <use x="159.033203" xlink:href="#DejaVuSans-48"/>
      </g>
     </g>
    </g>
    <g id="xtick_7">
     <g id="line2d_7">
      <g>
       <use style="stroke:#000000;stroke-width:0.8;" x="398.733596" xlink:href="#m82b29db93e" y="307.584"/>
      </g>
     </g>
     <g id="text_7">
      <!-- 0.12 -->
      <g transform="translate(387.600784 322.182437)scale(0.1 -0.1)">
       <use xlink:href="#DejaVuSans-48"/>
       <use x="63.623047" xlink:href="#DejaVuSans-46"/>
       <use x="95.410156" xlink:href="#DejaVuSans-49"/>
       <use x="159.033203" xlink:href="#DejaVuSans-50"/>
      </g>
     </g>
    </g>
    <g id="text_8">
     <!-- Время вычисления, секунд -->
     <defs>
      <path d="M 19.671875 34.8125 
L 19.671875 8.109375 
L 35.5 8.109375 
Q 43.453125 8.109375 47.28125 11.40625 
Q 51.125 14.703125 51.125 21.484375 
Q 51.125 28.328125 47.28125 31.5625 
Q 43.453125 34.8125 35.5 34.8125 
z
M 19.671875 64.796875 
L 19.671875 42.828125 
L 34.28125 42.828125 
Q 41.5 42.828125 45.03125 45.53125 
Q 48.578125 48.25 48.578125 53.8125 
Q 48.578125 59.328125 45.03125 62.0625 
Q 41.5 64.796875 34.28125 64.796875 
z
M 9.8125 72.90625 
L 35.015625 72.90625 
Q 46.296875 72.90625 52.390625 68.21875 
Q 58.5 63.53125 58.5 54.890625 
Q 58.5 48.1875 55.375 44.234375 
Q 52.25 40.28125 46.1875 39.3125 
Q 53.46875 37.75 57.5 32.78125 
Q 61.53125 27.828125 61.53125 20.40625 
Q 61.53125 10.640625 54.890625 5.3125 
Q 48.25 0 35.984375 0 
L 9.8125 0 
z
" id="DejaVuSans-1042"/>
      <path d="M 18.109375 8.203125 
L 18.109375 -20.796875 
L 9.078125 -20.796875 
L 9.078125 54.6875 
L 18.109375 54.6875 
L 18.109375 46.390625 
Q 20.953125 51.265625 25.265625 53.625 
Q 29.59375 56 35.59375 56 
Q 45.5625 56 51.78125 48.09375 
Q 58.015625 40.1875 58.015625 27.296875 
Q 58.015625 14.40625 51.78125 6.484375 
Q 45.5625 -1.421875 35.59375 -1.421875 
Q 29.59375 -1.421875 25.265625 0.953125 
Q 20.953125 3.328125 18.109375 8.203125 
z
M 48.6875 27.296875 
Q 48.6875 37.203125 44.609375 42.84375 
Q 40.53125 48.484375 33.40625 48.484375 
Q 26.265625 48.484375 22.1875 42.84375 
Q 18.109375 37.203125 18.109375 27.296875 
Q 18.109375 17.390625 22.1875 11.75 
Q 26.265625 6.109375 33.40625 6.109375 
Q 40.53125 6.109375 44.609375 11.75 
Q 48.6875 17.390625 48.6875 27.296875 
z
" id="DejaVuSans-1088"/>
      <path d="M 56.203125 29.59375 
L 56.203125 25.203125 
L 14.890625 25.203125 
Q 15.484375 15.921875 20.484375 11.0625 
Q 25.484375 6.203125 34.421875 6.203125 
Q 39.59375 6.203125 44.453125 7.46875 
Q 49.3125 8.734375 54.109375 11.28125 
L 54.109375 2.78125 
Q 49.265625 0.734375 44.1875 -0.34375 
Q 39.109375 -1.421875 33.890625 -1.421875 
Q 20.796875 -1.421875 13.15625 6.1875 
Q 5.515625 13.8125 5.515625 26.8125 
Q 5.515625 40.234375 12.765625 48.109375 
Q 20.015625 56 32.328125 56 
Q 43.359375 56 49.78125 48.890625 
Q 56.203125 41.796875 56.203125 29.59375 
z
M 47.21875 32.234375 
Q 47.125 39.59375 43.09375 43.984375 
Q 39.0625 48.390625 32.421875 48.390625 
Q 24.90625 48.390625 20.390625 44.140625 
Q 15.875 39.890625 15.1875 32.171875 
z
" id="DejaVuSans-1077"/>
      <path d="M 9.078125 54.6875 
L 22.21875 54.6875 
L 37.75 18.0625 
L 53.328125 54.6875 
L 66.359375 54.6875 
L 66.359375 0 
L 57.328125 0 
L 57.328125 46.09375 
L 42.234375 10.5 
L 33.25 10.5 
L 18.109375 46.09375 
L 18.109375 0 
L 9.078125 0 
z
" id="DejaVuSans-1084"/>
      <path d="M 18.453125 38.921875 
Q 18.453125 34.859375 21.578125 32.5625 
Q 24.703125 30.28125 30.515625 30.28125 
L 42.625 30.28125 
L 42.625 47.515625 
L 30.515625 47.515625 
Q 24.703125 47.515625 21.578125 45.265625 
Q 18.453125 43.015625 18.453125 38.921875 
z
M 5.671875 0 
L 22.359375 23.96875 
Q 16.703125 25.25 12.9375 28.59375 
Q 9.1875 31.9375 9.1875 38.921875 
Q 9.1875 46.828125 14.421875 50.75 
Q 19.671875 54.6875 30.28125 54.6875 
L 51.65625 54.6875 
L 51.65625 0 
L 42.625 0 
L 42.625 23.09375 
L 31.453125 23.09375 
L 15.328125 0 
z
" id="DejaVuSans-1103"/>
      <path id="DejaVuSans-32"/>
      <path d="M 18.0625 25.203125 
L 18.0625 7.171875 
L 30.859375 7.171875 
Q 37.015625 7.171875 40.234375 9.484375 
Q 43.453125 11.8125 43.453125 16.21875 
Q 43.453125 20.609375 40.234375 22.90625 
Q 37.015625 25.203125 30.859375 25.203125 
z
M 18.0625 47.515625 
L 18.0625 32.375 
L 29.890625 32.375 
Q 34.96875 32.375 38.1875 34.390625 
Q 41.40625 36.421875 41.40625 40.046875 
Q 41.40625 43.65625 38.1875 45.578125 
Q 34.96875 47.515625 29.890625 47.515625 
z
M 9.078125 54.6875 
L 30.46875 54.6875 
Q 40.09375 54.6875 45.265625 51.171875 
Q 50.4375 47.65625 50.4375 41.15625 
Q 50.4375 36.140625 47.796875 33.171875 
Q 45.171875 30.21875 39.984375 29.5 
Q 46.1875 28.328125 49.609375 24.609375 
Q 53.03125 20.90625 53.03125 15.328125 
Q 53.03125 8.015625 47.390625 4 
Q 41.75 0 31.296875 0 
L 9.078125 0 
z
" id="DejaVuSans-1074"/>
      <path d="M 61.078125 54.6875 
L 70.0625 54.6875 
L 70.0625 0 
L 61.078125 0 
z
M 65.578125 56 
z
M 43.453125 16.21875 
Q 43.453125 20.609375 40.25 22.90625 
Q 37.0625 25.203125 30.90625 25.203125 
L 18.109375 25.203125 
L 18.109375 7.171875 
L 30.90625 7.171875 
Q 37.0625 7.171875 40.25 9.484375 
Q 43.453125 11.8125 43.453125 16.21875 
z
M 9.078125 54.6875 
L 18.109375 54.6875 
L 18.109375 32.375 
L 31.296875 32.375 
Q 41.75 32.375 47.390625 28.390625 
Q 53.03125 24.421875 53.03125 16.21875 
Q 53.03125 8.015625 47.390625 4 
Q 41.75 0 31.296875 0 
L 9.078125 0 
z
" id="DejaVuSans-1099"/>
      <path d="M 41.015625 0 
L 41.015625 23 
L 24.265625 23 
Q 16.796875 23 11.8125 27.640625 
Q 7.328125 31.84375 7.328125 40.828125 
L 7.328125 54.6875 
L 16.3125 54.6875 
L 16.3125 41.65625 
Q 16.3125 35.9375 18.84375 33.0625 
Q 21.4375 30.171875 26.515625 30.171875 
L 41.015625 30.171875 
L 41.015625 54.6875 
L 50 54.6875 
L 50 0 
z
" id="DejaVuSans-1095"/>
      <path d="M 55.90625 54.6875 
L 55.90625 0 
L 46.96875 0 
L 46.96875 43.890625 
L 20.609375 0 
L 9.078125 0 
L 9.078125 54.6875 
L 18.015625 54.6875 
L 18.015625 10.890625 
L 44.34375 54.6875 
z
" id="DejaVuSans-1080"/>
      <path d="M 48.78125 52.59375 
L 48.78125 44.1875 
Q 44.96875 46.296875 41.140625 47.34375 
Q 37.3125 48.390625 33.40625 48.390625 
Q 24.65625 48.390625 19.8125 42.84375 
Q 14.984375 37.3125 14.984375 27.296875 
Q 14.984375 17.28125 19.8125 11.734375 
Q 24.65625 6.203125 33.40625 6.203125 
Q 37.3125 6.203125 41.140625 7.25 
Q 44.96875 8.296875 48.78125 10.40625 
L 48.78125 2.09375 
Q 45.015625 0.34375 40.984375 -0.53125 
Q 36.96875 -1.421875 32.421875 -1.421875 
Q 20.0625 -1.421875 12.78125 6.34375 
Q 5.515625 14.109375 5.515625 27.296875 
Q 5.515625 40.671875 12.859375 48.328125 
Q 20.21875 56 33.015625 56 
Q 37.15625 56 41.109375 55.140625 
Q 45.0625 54.296875 48.78125 52.59375 
z
" id="DejaVuSans-1089"/>
      <path d="M 3.71875 0 
L 3.71875 7.46875 
Q 12.59375 8.84375 15.328125 14.984375 
Q 18.65625 23.640625 18.65625 45.75 
L 18.65625 54.6875 
L 55.609375 54.6875 
L 55.609375 0 
L 46.625 0 
L 46.625 47.515625 
L 27.640625 47.515625 
L 27.640625 42.09375 
Q 27.640625 21 23.34375 11.53125 
Q 18.75 1.421875 3.71875 0 
z
" id="DejaVuSans-1083"/>
      <path d="M 9.078125 54.6875 
L 18.109375 54.6875 
L 18.109375 32.375 
L 47.265625 32.375 
L 47.265625 54.6875 
L 56.296875 54.6875 
L 56.296875 0 
L 47.265625 0 
L 47.265625 25.203125 
L 18.109375 25.203125 
L 18.109375 0 
L 9.078125 0 
z
" id="DejaVuSans-1085"/>
      <path d="M 11.71875 12.40625 
L 22.015625 12.40625 
L 22.015625 4 
L 14.015625 -11.625 
L 7.71875 -11.625 
L 11.71875 4 
z
" id="DejaVuSans-44"/>
      <path d="M 9.078125 54.6875 
L 18.015625 54.6875 
L 18.015625 29 
L 43.359375 54.6875 
L 54.390625 54.6875 
L 33.5 33.546875 
L 57.078125 0 
L 47.015625 0 
L 27.640625 27.59375 
L 18.015625 17.828125 
L 18.015625 0 
L 9.078125 0 
z
" id="DejaVuSans-1082"/>
      <path d="M 32.171875 -5.078125 
Q 28.375 -14.84375 24.75 -17.8125 
Q 21.140625 -20.796875 15.09375 -20.796875 
L 7.90625 -20.796875 
L 7.90625 -13.28125 
L 13.1875 -13.28125 
Q 16.890625 -13.28125 18.9375 -11.515625 
Q 21 -9.765625 23.484375 -3.21875 
L 25.09375 0.875 
L 2.984375 54.6875 
L 12.5 54.6875 
L 29.59375 11.921875 
L 46.6875 54.6875 
L 56.203125 54.6875 
z
" id="DejaVuSans-1091"/>
      <path d="M 21.625 7.171875 
L 47.703125 7.171875 
L 47.703125 47.515625 
L 28.8125 47.515625 
L 28.8125 40.671875 
Q 28.8125 20.5625 23.046875 9.8125 
z
M 8.59375 7.171875 
Q 13.03125 9.125 14.984375 13.28125 
Q 19.78125 23.578125 19.78125 44.34375 
L 19.78125 54.6875 
L 56.734375 54.6875 
L 56.734375 7.171875 
L 63.921875 7.171875 
L 63.921875 -13.8125 
L 56.734375 -13.8125 
L 56.734375 0 
L 12.40625 0 
L 12.40625 -13.8125 
L 5.21875 -13.8125 
L 5.21875 7.171875 
z
" id="DejaVuSans-1076"/>
     </defs>
     <g transform="translate(164.755313 335.860562)scale(0.1 -0.1)">
      <use xlink:href="#DejaVuSans-1042"/>
      <use x="68.603516" xlink:href="#DejaVuSans-1088"/>
      <use x="132.080078" xlink:href="#DejaVuSans-1077"/>
      <use x="193.603516" xlink:href="#DejaVuSans-1084"/>
      <use x="269.042969" xlink:href="#DejaVuSans-1103"/>
      <use x="329.199219" xlink:href="#DejaVuSans-32"/>
      <use x="360.986328" xlink:href="#DejaVuSans-1074"/>
      <use x="419.921875" xlink:href="#DejaVuSans-1099"/>
      <use x="498.876953" xlink:href="#DejaVuSans-1095"/>
      <use x="557.958984" xlink:href="#DejaVuSans-1080"/>
      <use x="622.949219" xlink:href="#DejaVuSans-1089"/>
      <use x="677.929688" xlink:href="#DejaVuSans-1083"/>
      <use x="741.845703" xlink:href="#DejaVuSans-1077"/>
      <use x="803.369141" xlink:href="#DejaVuSans-1085"/>
      <use x="868.75" xlink:href="#DejaVuSans-1080"/>
      <use x="933.740234" xlink:href="#DejaVuSans-1103"/>
      <use x="993.896484" xlink:href="#DejaVuSans-44"/>
      <use x="1025.683594" xlink:href="#DejaVuSans-32"/>
      <use x="1057.470703" xlink:href="#DejaVuSans-1089"/>
      <use x="1112.451172" xlink:href="#DejaVuSans-1077"/>
      <use x="1173.974609" xlink:href="#DejaVuSans-1082"/>
      <use x="1234.375" xlink:href="#DejaVuSans-1091"/>
      <use x="1293.554688" xlink:href="#DejaVuSans-1085"/>
      <use x="1358.935547" xlink:href="#DejaVuSans-1076"/>
     </g>
    </g>
   </g>
   <g id="matplotlib.axis_2">
    <g id="ytick_1">
     <g id="line2d_8">
      <path clip-path="url(#pfec1dbe574)" d="M 57.6 307.584 
L 414.72 307.584 
" style="fill:none;stroke:#b0b0b0;stroke-linecap:square;stroke-opacity:0.75;stroke-width:0.8;"/>
     </g>
     <g id="line2d_9">
      <defs>
       <path d="M 0 0 
L -3.5 0 
" id="me1793959f3" style="stroke:#000000;stroke-width:0.8;"/>
      </defs>
      <g>
       <use style="stroke:#000000;stroke-width:0.8;" x="57.6" xlink:href="#me1793959f3" y="307.584"/>
      </g>
     </g>
     <g id="text_9">
      <!-- 0 -->
      <g transform="translate(44.2375 311.383219)scale(0.1 -0.1)">
       <use xlink:href="#DejaVuSans-48"/>
      </g>
     </g>
    </g>
    <g id="ytick_2">
     <g id="line2d_10">
      <path clip-path="url(#pfec1dbe574)" d="M 57.6 271.711389 
L 414.72 271.711389 
" style="fill:none;stroke:#b0b0b0;stroke-linecap:square;stroke-opacity:0.75;stroke-width:0.8;"/>
     </g>
     <g id="line2d_11">
      <g>
       <use style="stroke:#000000;stroke-width:0.8;" x="57.6" xlink:href="#me1793959f3" y="271.711389"/>
      </g>
     </g>
     <g id="text_10">
      <!-- 200 -->
      <g transform="translate(31.5125 275.510607)scale(0.1 -0.1)">
       <use xlink:href="#DejaVuSans-50"/>
       <use x="63.623047" xlink:href="#DejaVuSans-48"/>
       <use x="127.246094" xlink:href="#DejaVuSans-48"/>
      </g>
     </g>
    </g>
    <g id="ytick_3">
     <g id="line2d_12">
      <path clip-path="url(#pfec1dbe574)" d="M 57.6 235.838777 
L 414.72 235.838777 
" style="fill:none;stroke:#b0b0b0;stroke-linecap:square;stroke-opacity:0.75;stroke-width:0.8;"/>
     </g>
     <g id="line2d_13">
      <g>
       <use style="stroke:#000000;stroke-width:0.8;" x="57.6" xlink:href="#me1793959f3" y="235.838777"/>
      </g>
     </g>
     <g id="text_11">
      <!-- 400 -->
      <g transform="translate(31.5125 239.637996)scale(0.1 -0.1)">
       <use xlink:href="#DejaVuSans-52"/>
       <use x="63.623047" xlink:href="#DejaVuSans-48"/>
       <use x="127.246094" xlink:href="#DejaVuSans-48"/>
      </g>
     </g>
    </g>
    <g id="ytick_4">
     <g id="line2d_14">
      <path clip-path="url(#pfec1dbe574)" d="M 57.6 199.966166 
L 414.72 199.966166 
" style="fill:none;stroke:#b0b0b0;stroke-linecap:square;stroke-opacity:0.75;stroke-width:0.8;"/>
     </g>
     <g id="line2d_15">
      <g>
       <use style="stroke:#000000;stroke-width:0.8;" x="57.6" xlink:href="#me1793959f3" y="199.966166"/>
      </g>
     </g>
     <g id="text_12">
      <!-- 600 -->
      <g transform="translate(31.5125 203.765384)scale(0.1 -0.1)">
       <use xlink:href="#DejaVuSans-54"/>
       <use x="63.623047" xlink:href="#DejaVuSans-48"/>
       <use x="127.246094" xlink:href="#DejaVuSans-48"/>
      </g>
     </g>
    </g>
    <g id="ytick_5">
     <g id="line2d_16">
      <path clip-path="url(#pfec1dbe574)" d="M 57.6 164.093554 
L 414.72 164.093554 
" style="fill:none;stroke:#b0b0b0;stroke-linecap:square;stroke-opacity:0.75;stroke-width:0.8;"/>
     </g>
     <g id="line2d_17">
      <g>
       <use style="stroke:#000000;stroke-width:0.8;" x="57.6" xlink:href="#me1793959f3" y="164.093554"/>
      </g>
     </g>
     <g id="text_13">
      <!-- 800 -->
      <g transform="translate(31.5125 167.892773)scale(0.1 -0.1)">
       <use xlink:href="#DejaVuSans-56"/>
       <use x="63.623047" xlink:href="#DejaVuSans-48"/>
       <use x="127.246094" xlink:href="#DejaVuSans-48"/>
      </g>
     </g>
    </g>
    <g id="ytick_6">
     <g id="line2d_18">
      <path clip-path="url(#pfec1dbe574)" d="M 57.6 128.220943 
L 414.72 128.220943 
" style="fill:none;stroke:#b0b0b0;stroke-linecap:square;stroke-opacity:0.75;stroke-width:0.8;"/>
     </g>
     <g id="line2d_19">
      <g>
       <use style="stroke:#000000;stroke-width:0.8;" x="57.6" xlink:href="#me1793959f3" y="128.220943"/>
      </g>
     </g>
     <g id="text_14">
      <!-- 1000 -->
      <g transform="translate(25.15 132.020161)scale(0.1 -0.1)">
       <use xlink:href="#DejaVuSans-49"/>
       <use x="63.623047" xlink:href="#DejaVuSans-48"/>
       <use x="127.246094" xlink:href="#DejaVuSans-48"/>
       <use x="190.869141" xlink:href="#DejaVuSans-48"/>
      </g>
     </g>
    </g>
    <g id="ytick_7">
     <g id="line2d_20">
      <path clip-path="url(#pfec1dbe574)" d="M 57.6 92.348331 
L 414.72 92.348331 
" style="fill:none;stroke:#b0b0b0;stroke-linecap:square;stroke-opacity:0.75;stroke-width:0.8;"/>
     </g>
     <g id="line2d_21">
      <g>
       <use style="stroke:#000000;stroke-width:0.8;" x="57.6" xlink:href="#me1793959f3" y="92.348331"/>
      </g>
     </g>
     <g id="text_15">
      <!-- 1200 -->
      <g transform="translate(25.15 96.14755)scale(0.1 -0.1)">
       <use xlink:href="#DejaVuSans-49"/>
       <use x="63.623047" xlink:href="#DejaVuSans-50"/>
       <use x="127.246094" xlink:href="#DejaVuSans-48"/>
       <use x="190.869141" xlink:href="#DejaVuSans-48"/>
      </g>
     </g>
    </g>
    <g id="ytick_8">
     <g id="line2d_22">
      <path clip-path="url(#pfec1dbe574)" d="M 57.6 56.47572 
L 414.72 56.47572 
" style="fill:none;stroke:#b0b0b0;stroke-linecap:square;stroke-opacity:0.75;stroke-width:0.8;"/>
     </g>
     <g id="line2d_23">
      <g>
       <use style="stroke:#000000;stroke-width:0.8;" x="57.6" xlink:href="#me1793959f3" y="56.47572"/>
      </g>
     </g>
     <g id="text_16">
      <!-- 1400 -->
      <g transform="translate(25.15 60.274938)scale(0.1 -0.1)">
       <use xlink:href="#DejaVuSans-49"/>
       <use x="63.623047" xlink:href="#DejaVuSans-52"/>
       <use x="127.246094" xlink:href="#DejaVuSans-48"/>
       <use x="190.869141" xlink:href="#DejaVuSans-48"/>
      </g>
     </g>
    </g>
   </g>
   <g id="patch_201">
    <path d="M 57.6 307.584 
L 57.6 41.472 
" style="fill:none;stroke:#000000;stroke-linecap:square;stroke-linejoin:miter;stroke-width:0.8;"/>
   </g>
   <g id="patch_202">
    <path d="M 414.72 307.584 
L 414.72 41.472 
" style="fill:none;stroke:#000000;stroke-linecap:square;stroke-linejoin:miter;stroke-width:0.8;"/>
   </g>
   <g id="patch_203">
    <path d="M 57.6 307.584 
L 414.72 307.584 
" style="fill:none;stroke:#000000;stroke-linecap:square;stroke-linejoin:miter;stroke-width:0.8;"/>
   </g>
   <g id="patch_204">
    <path d="M 57.6 41.472 
L 414.72 41.472 
" style="fill:none;stroke:#000000;stroke-linecap:square;stroke-linejoin:miter;stroke-width:0.8;"/>
   </g>
   <g id="text_17">
    <!-- 5 программ -->
    <defs>
     <path d="M 10.796875 72.90625 
L 49.515625 72.90625 
L 49.515625 64.59375 
L 19.828125 64.59375 
L 19.828125 46.734375 
Q 21.96875 47.46875 24.109375 47.828125 
Q 26.265625 48.1875 28.421875 48.1875 
Q 40.625 48.1875 47.75 41.5 
Q 54.890625 34.8125 54.890625 23.390625 
Q 54.890625 11.625 47.5625 5.09375 
Q 40.234375 -1.421875 26.90625 -1.421875 
Q 22.3125 -1.421875 17.546875 -0.640625 
Q 12.796875 0.140625 7.71875 1.703125 
L 7.71875 11.625 
Q 12.109375 9.234375 16.796875 8.0625 
Q 21.484375 6.890625 26.703125 6.890625 
Q 35.15625 6.890625 40.078125 11.328125 
Q 45.015625 15.765625 45.015625 23.390625 
Q 45.015625 31 40.078125 35.4375 
Q 35.15625 39.890625 26.703125 39.890625 
Q 22.75 39.890625 18.8125 39.015625 
Q 14.890625 38.140625 10.796875 36.28125 
z
" id="DejaVuSans-53"/>
     <path d="M 56.296875 54.6875 
L 56.296875 0 
L 47.265625 0 
L 47.265625 47.515625 
L 18.109375 47.515625 
L 18.109375 0 
L 9.078125 0 
L 9.078125 54.6875 
z
" id="DejaVuSans-1087"/>
     <path d="M 30.609375 48.390625 
Q 23.390625 48.390625 19.1875 42.75 
Q 14.984375 37.109375 14.984375 27.296875 
Q 14.984375 17.484375 19.15625 11.84375 
Q 23.34375 6.203125 30.609375 6.203125 
Q 37.796875 6.203125 41.984375 11.859375 
Q 46.1875 17.53125 46.1875 27.296875 
Q 46.1875 37.015625 41.984375 42.703125 
Q 37.796875 48.390625 30.609375 48.390625 
z
M 30.609375 56 
Q 42.328125 56 49.015625 48.375 
Q 55.71875 40.765625 55.71875 27.296875 
Q 55.71875 13.875 49.015625 6.21875 
Q 42.328125 -1.421875 30.609375 -1.421875 
Q 18.84375 -1.421875 12.171875 6.21875 
Q 5.515625 13.875 5.515625 27.296875 
Q 5.515625 40.765625 12.171875 48.375 
Q 18.84375 56 30.609375 56 
z
" id="DejaVuSans-1086"/>
     <path d="M 9.078125 0 
L 9.078125 54.6875 
L 47.65625 54.6875 
L 47.65625 47.515625 
L 18.109375 47.515625 
L 18.109375 0 
z
" id="DejaVuSans-1075"/>
     <path d="M 34.28125 27.484375 
Q 23.390625 27.484375 19.1875 25 
Q 14.984375 22.515625 14.984375 16.5 
Q 14.984375 11.71875 18.140625 8.90625 
Q 21.296875 6.109375 26.703125 6.109375 
Q 34.1875 6.109375 38.703125 11.40625 
Q 43.21875 16.703125 43.21875 25.484375 
L 43.21875 27.484375 
z
M 52.203125 31.203125 
L 52.203125 0 
L 43.21875 0 
L 43.21875 8.296875 
Q 40.140625 3.328125 35.546875 0.953125 
Q 30.953125 -1.421875 24.3125 -1.421875 
Q 15.921875 -1.421875 10.953125 3.296875 
Q 6 8.015625 6 15.921875 
Q 6 25.140625 12.171875 29.828125 
Q 18.359375 34.515625 30.609375 34.515625 
L 43.21875 34.515625 
L 43.21875 35.40625 
Q 43.21875 41.609375 39.140625 45 
Q 35.0625 48.390625 27.6875 48.390625 
Q 23 48.390625 18.546875 47.265625 
Q 14.109375 46.140625 10.015625 43.890625 
L 10.015625 52.203125 
Q 14.9375 54.109375 19.578125 55.046875 
Q 24.21875 56 28.609375 56 
Q 40.484375 56 46.34375 49.84375 
Q 52.203125 43.703125 52.203125 31.203125 
z
" id="DejaVuSans-1072"/>
    </defs>
    <g transform="translate(199.341563 35.472)scale(0.12 -0.12)">
     <use xlink:href="#DejaVuSans-53"/>
     <use x="63.623047" xlink:href="#DejaVuSans-32"/>
     <use x="95.410156" xlink:href="#DejaVuSans-1087"/>
     <use x="160.791016" xlink:href="#DejaVuSans-1088"/>
     <use x="224.267578" xlink:href="#DejaVuSans-1086"/>
     <use x="285.449219" xlink:href="#DejaVuSans-1075"/>
     <use x="337.988281" xlink:href="#DejaVuSans-1088"/>
     <use x="401.464844" xlink:href="#DejaVuSans-1072"/>
     <use x="462.744141" xlink:href="#DejaVuSans-1084"/>
     <use x="538.183594" xlink:href="#DejaVuSans-1084"/>
    </g>
   </g>
   <g id="legend_1">
    <g id="patch_205">
     <path d="M 217.002812 78.82825 
L 407.72 78.82825 
Q 409.72 78.82825 409.72 76.82825 
L 409.72 48.472 
Q 409.72 46.472 407.72 46.472 
L 217.002812 46.472 
Q 215.002812 46.472 215.002812 48.472 
L 215.002812 76.82825 
Q 215.002812 78.82825 217.002812 78.82825 
z
" style="fill:#ffffff;opacity:0.8;stroke:#cccccc;stroke-linejoin:miter;"/>
    </g>
    <g id="patch_206">
     <path d="M 219.002812 58.070437 
L 239.002812 58.070437 
L 239.002812 51.070437 
L 219.002812 51.070437 
z
" style="fill:#0000ff;opacity:0.5;"/>
    </g>
    <g id="text_18">
     <!-- CPU (i7-7700K CPU @ 4.20GHz) -->
     <defs>
      <path d="M 64.40625 67.28125 
L 64.40625 56.890625 
Q 59.421875 61.53125 53.78125 63.8125 
Q 48.140625 66.109375 41.796875 66.109375 
Q 29.296875 66.109375 22.65625 58.46875 
Q 16.015625 50.828125 16.015625 36.375 
Q 16.015625 21.96875 22.65625 14.328125 
Q 29.296875 6.6875 41.796875 6.6875 
Q 48.140625 6.6875 53.78125 8.984375 
Q 59.421875 11.28125 64.40625 15.921875 
L 64.40625 5.609375 
Q 59.234375 2.09375 53.4375 0.328125 
Q 47.65625 -1.421875 41.21875 -1.421875 
Q 24.65625 -1.421875 15.125 8.703125 
Q 5.609375 18.84375 5.609375 36.375 
Q 5.609375 53.953125 15.125 64.078125 
Q 24.65625 74.21875 41.21875 74.21875 
Q 47.75 74.21875 53.53125 72.484375 
Q 59.328125 70.75 64.40625 67.28125 
z
" id="DejaVuSans-67"/>
      <path d="M 19.671875 64.796875 
L 19.671875 37.40625 
L 32.078125 37.40625 
Q 38.96875 37.40625 42.71875 40.96875 
Q 46.484375 44.53125 46.484375 51.125 
Q 46.484375 57.671875 42.71875 61.234375 
Q 38.96875 64.796875 32.078125 64.796875 
z
M 9.8125 72.90625 
L 32.078125 72.90625 
Q 44.34375 72.90625 50.609375 67.359375 
Q 56.890625 61.8125 56.890625 51.125 
Q 56.890625 40.328125 50.609375 34.8125 
Q 44.34375 29.296875 32.078125 29.296875 
L 19.671875 29.296875 
L 19.671875 0 
L 9.8125 0 
z
" id="DejaVuSans-80"/>
      <path d="M 8.6875 72.90625 
L 18.609375 72.90625 
L 18.609375 28.609375 
Q 18.609375 16.890625 22.84375 11.734375 
Q 27.09375 6.59375 36.625 6.59375 
Q 46.09375 6.59375 50.34375 11.734375 
Q 54.59375 16.890625 54.59375 28.609375 
L 54.59375 72.90625 
L 64.5 72.90625 
L 64.5 27.390625 
Q 64.5 13.140625 57.4375 5.859375 
Q 50.390625 -1.421875 36.625 -1.421875 
Q 22.796875 -1.421875 15.734375 5.859375 
Q 8.6875 13.140625 8.6875 27.390625 
z
" id="DejaVuSans-85"/>
      <path d="M 31 75.875 
Q 24.46875 64.65625 21.28125 53.65625 
Q 18.109375 42.671875 18.109375 31.390625 
Q 18.109375 20.125 21.3125 9.0625 
Q 24.515625 -2 31 -13.1875 
L 23.1875 -13.1875 
Q 15.875 -1.703125 12.234375 9.375 
Q 8.59375 20.453125 8.59375 31.390625 
Q 8.59375 42.28125 12.203125 53.3125 
Q 15.828125 64.359375 23.1875 75.875 
z
" id="DejaVuSans-40"/>
      <path d="M 9.421875 54.6875 
L 18.40625 54.6875 
L 18.40625 0 
L 9.421875 0 
z
M 9.421875 75.984375 
L 18.40625 75.984375 
L 18.40625 64.59375 
L 9.421875 64.59375 
z
" id="DejaVuSans-105"/>
      <path d="M 8.203125 72.90625 
L 55.078125 72.90625 
L 55.078125 68.703125 
L 28.609375 0 
L 18.3125 0 
L 43.21875 64.59375 
L 8.203125 64.59375 
z
" id="DejaVuSans-55"/>
      <path d="M 4.890625 31.390625 
L 31.203125 31.390625 
L 31.203125 23.390625 
L 4.890625 23.390625 
z
" id="DejaVuSans-45"/>
      <path d="M 9.8125 72.90625 
L 19.671875 72.90625 
L 19.671875 42.09375 
L 52.390625 72.90625 
L 65.09375 72.90625 
L 28.90625 38.921875 
L 67.671875 0 
L 54.6875 0 
L 19.671875 35.109375 
L 19.671875 0 
L 9.8125 0 
z
" id="DejaVuSans-75"/>
      <path d="M 37.203125 26.21875 
Q 37.203125 19.234375 40.671875 15.25 
Q 44.140625 11.28125 50.203125 11.28125 
Q 56.203125 11.28125 59.640625 15.28125 
Q 63.09375 19.28125 63.09375 26.21875 
Q 63.09375 33.0625 59.578125 37.078125 
Q 56.0625 41.109375 50.09375 41.109375 
Q 44.1875 41.109375 40.6875 37.109375 
Q 37.203125 33.109375 37.203125 26.21875 
z
M 63.8125 11.625 
Q 60.890625 7.859375 57.109375 6.078125 
Q 53.328125 4.296875 48.296875 4.296875 
Q 39.890625 4.296875 34.640625 10.375 
Q 29.390625 16.453125 29.390625 26.21875 
Q 29.390625 35.984375 34.65625 42.078125 
Q 39.9375 48.1875 48.296875 48.1875 
Q 53.328125 48.1875 57.125 46.359375 
Q 60.9375 44.53125 63.8125 40.828125 
L 63.8125 47.21875 
L 70.796875 47.21875 
L 70.796875 11.28125 
Q 77.9375 12.359375 81.953125 17.796875 
Q 85.984375 23.25 85.984375 31.890625 
Q 85.984375 37.109375 84.4375 41.703125 
Q 82.90625 46.296875 79.78125 50.203125 
Q 74.703125 56.59375 67.40625 59.984375 
Q 60.109375 63.375 51.515625 63.375 
Q 45.515625 63.375 39.984375 61.78125 
Q 34.46875 60.203125 29.78125 57.078125 
Q 22.125 52.09375 17.796875 44.015625 
Q 13.484375 35.9375 13.484375 26.515625 
Q 13.484375 18.75 16.28125 11.953125 
Q 19.09375 5.171875 24.421875 0 
Q 29.546875 -5.078125 36.28125 -7.734375 
Q 43.015625 -10.40625 50.6875 -10.40625 
Q 56.984375 -10.40625 63.0625 -8.28125 
Q 69.140625 -6.15625 74.21875 -2.203125 
L 78.609375 -7.625 
Q 72.515625 -12.359375 65.3125 -14.875 
Q 58.109375 -17.390625 50.6875 -17.390625 
Q 41.65625 -17.390625 33.640625 -14.1875 
Q 25.640625 -10.984375 19.390625 -4.890625 
Q 13.140625 1.21875 9.859375 9.25 
Q 6.59375 17.28125 6.59375 26.515625 
Q 6.59375 35.40625 9.90625 43.453125 
Q 13.234375 51.515625 19.390625 57.625 
Q 25.6875 63.8125 33.9375 67.109375 
Q 42.1875 70.40625 51.421875 70.40625 
Q 61.765625 70.40625 70.625 66.15625 
Q 79.5 61.921875 85.5 54.109375 
Q 89.15625 49.3125 91.078125 43.703125 
Q 93.015625 38.09375 93.015625 32.078125 
Q 93.015625 19.234375 85.25 11.8125 
Q 77.484375 4.390625 63.8125 4.109375 
z
" id="DejaVuSans-64"/>
      <path d="M 59.515625 10.40625 
L 59.515625 29.984375 
L 43.40625 29.984375 
L 43.40625 38.09375 
L 69.28125 38.09375 
L 69.28125 6.78125 
Q 63.578125 2.734375 56.6875 0.65625 
Q 49.8125 -1.421875 42 -1.421875 
Q 24.90625 -1.421875 15.25 8.5625 
Q 5.609375 18.5625 5.609375 36.375 
Q 5.609375 54.25 15.25 64.234375 
Q 24.90625 74.21875 42 74.21875 
Q 49.125 74.21875 55.546875 72.453125 
Q 61.96875 70.703125 67.390625 67.28125 
L 67.390625 56.78125 
Q 61.921875 61.421875 55.765625 63.765625 
Q 49.609375 66.109375 42.828125 66.109375 
Q 29.4375 66.109375 22.71875 58.640625 
Q 16.015625 51.171875 16.015625 36.375 
Q 16.015625 21.625 22.71875 14.15625 
Q 29.4375 6.6875 42.828125 6.6875 
Q 48.046875 6.6875 52.140625 7.59375 
Q 56.25 8.5 59.515625 10.40625 
z
" id="DejaVuSans-71"/>
      <path d="M 9.8125 72.90625 
L 19.671875 72.90625 
L 19.671875 43.015625 
L 55.515625 43.015625 
L 55.515625 72.90625 
L 65.375 72.90625 
L 65.375 0 
L 55.515625 0 
L 55.515625 34.71875 
L 19.671875 34.71875 
L 19.671875 0 
L 9.8125 0 
z
" id="DejaVuSans-72"/>
      <path d="M 5.515625 54.6875 
L 48.1875 54.6875 
L 48.1875 46.484375 
L 14.40625 7.171875 
L 48.1875 7.171875 
L 48.1875 0 
L 4.296875 0 
L 4.296875 8.203125 
L 38.09375 47.515625 
L 5.515625 47.515625 
z
" id="DejaVuSans-122"/>
      <path d="M 8.015625 75.875 
L 15.828125 75.875 
Q 23.140625 64.359375 26.78125 53.3125 
Q 30.421875 42.28125 30.421875 31.390625 
Q 30.421875 20.453125 26.78125 9.375 
Q 23.140625 -1.703125 15.828125 -13.1875 
L 8.015625 -13.1875 
Q 14.5 -2 17.703125 9.0625 
Q 20.90625 20.125 20.90625 31.390625 
Q 20.90625 42.671875 17.703125 53.65625 
Q 14.5 64.65625 8.015625 75.875 
z
" id="DejaVuSans-41"/>
     </defs>
     <g transform="translate(247.002812 58.070437)scale(0.1 -0.1)">
      <use xlink:href="#DejaVuSans-67"/>
      <use x="69.824219" xlink:href="#DejaVuSans-80"/>
      <use x="130.126953" xlink:href="#DejaVuSans-85"/>
      <use x="203.320312" xlink:href="#DejaVuSans-32"/>
      <use x="235.107422" xlink:href="#DejaVuSans-40"/>
      <use x="274.121094" xlink:href="#DejaVuSans-105"/>
      <use x="301.904297" xlink:href="#DejaVuSans-55"/>
      <use x="365.527344" xlink:href="#DejaVuSans-45"/>
      <use x="401.611328" xlink:href="#DejaVuSans-55"/>
      <use x="465.234375" xlink:href="#DejaVuSans-55"/>
      <use x="528.857422" xlink:href="#DejaVuSans-48"/>
      <use x="592.480469" xlink:href="#DejaVuSans-48"/>
      <use x="656.103516" xlink:href="#DejaVuSans-75"/>
      <use x="721.679688" xlink:href="#DejaVuSans-32"/>
      <use x="753.466797" xlink:href="#DejaVuSans-67"/>
      <use x="823.291016" xlink:href="#DejaVuSans-80"/>
      <use x="883.59375" xlink:href="#DejaVuSans-85"/>
      <use x="956.787109" xlink:href="#DejaVuSans-32"/>
      <use x="988.574219" xlink:href="#DejaVuSans-64"/>
      <use x="1088.574219" xlink:href="#DejaVuSans-32"/>
      <use x="1120.361328" xlink:href="#DejaVuSans-52"/>
      <use x="1183.984375" xlink:href="#DejaVuSans-46"/>
      <use x="1215.771484" xlink:href="#DejaVuSans-50"/>
      <use x="1279.394531" xlink:href="#DejaVuSans-48"/>
      <use x="1343.017578" xlink:href="#DejaVuSans-71"/>
      <use x="1420.507812" xlink:href="#DejaVuSans-72"/>
      <use x="1495.703125" xlink:href="#DejaVuSans-122"/>
      <use x="1548.193359" xlink:href="#DejaVuSans-41"/>
     </g>
    </g>
    <g id="patch_207">
     <path d="M 219.002812 72.748562 
L 239.002812 72.748562 
L 239.002812 65.748562 
L 219.002812 65.748562 
z
" style="fill:#ff0000;opacity:0.5;"/>
    </g>
    <g id="text_19">
     <!-- GPU (AMD Vega 56) -->
     <defs>
      <path d="M 34.1875 63.1875 
L 20.796875 26.90625 
L 47.609375 26.90625 
z
M 28.609375 72.90625 
L 39.796875 72.90625 
L 67.578125 0 
L 57.328125 0 
L 50.6875 18.703125 
L 17.828125 18.703125 
L 11.1875 0 
L 0.78125 0 
z
" id="DejaVuSans-65"/>
      <path d="M 9.8125 72.90625 
L 24.515625 72.90625 
L 43.109375 23.296875 
L 61.8125 72.90625 
L 76.515625 72.90625 
L 76.515625 0 
L 66.890625 0 
L 66.890625 64.015625 
L 48.09375 14.015625 
L 38.1875 14.015625 
L 19.390625 64.015625 
L 19.390625 0 
L 9.8125 0 
z
" id="DejaVuSans-77"/>
      <path d="M 19.671875 64.796875 
L 19.671875 8.109375 
L 31.59375 8.109375 
Q 46.6875 8.109375 53.6875 14.9375 
Q 60.6875 21.78125 60.6875 36.53125 
Q 60.6875 51.171875 53.6875 57.984375 
Q 46.6875 64.796875 31.59375 64.796875 
z
M 9.8125 72.90625 
L 30.078125 72.90625 
Q 51.265625 72.90625 61.171875 64.09375 
Q 71.09375 55.28125 71.09375 36.53125 
Q 71.09375 17.671875 61.125 8.828125 
Q 51.171875 0 30.078125 0 
L 9.8125 0 
z
" id="DejaVuSans-68"/>
      <path d="M 28.609375 0 
L 0.78125 72.90625 
L 11.078125 72.90625 
L 34.1875 11.53125 
L 57.328125 72.90625 
L 67.578125 72.90625 
L 39.796875 0 
z
" id="DejaVuSans-86"/>
      <path d="M 56.203125 29.59375 
L 56.203125 25.203125 
L 14.890625 25.203125 
Q 15.484375 15.921875 20.484375 11.0625 
Q 25.484375 6.203125 34.421875 6.203125 
Q 39.59375 6.203125 44.453125 7.46875 
Q 49.3125 8.734375 54.109375 11.28125 
L 54.109375 2.78125 
Q 49.265625 0.734375 44.1875 -0.34375 
Q 39.109375 -1.421875 33.890625 -1.421875 
Q 20.796875 -1.421875 13.15625 6.1875 
Q 5.515625 13.8125 5.515625 26.8125 
Q 5.515625 40.234375 12.765625 48.109375 
Q 20.015625 56 32.328125 56 
Q 43.359375 56 49.78125 48.890625 
Q 56.203125 41.796875 56.203125 29.59375 
z
M 47.21875 32.234375 
Q 47.125 39.59375 43.09375 43.984375 
Q 39.0625 48.390625 32.421875 48.390625 
Q 24.90625 48.390625 20.390625 44.140625 
Q 15.875 39.890625 15.1875 32.171875 
z
" id="DejaVuSans-101"/>
      <path d="M 45.40625 27.984375 
Q 45.40625 37.75 41.375 43.109375 
Q 37.359375 48.484375 30.078125 48.484375 
Q 22.859375 48.484375 18.828125 43.109375 
Q 14.796875 37.75 14.796875 27.984375 
Q 14.796875 18.265625 18.828125 12.890625 
Q 22.859375 7.515625 30.078125 7.515625 
Q 37.359375 7.515625 41.375 12.890625 
Q 45.40625 18.265625 45.40625 27.984375 
z
M 54.390625 6.78125 
Q 54.390625 -7.171875 48.1875 -13.984375 
Q 42 -20.796875 29.203125 -20.796875 
Q 24.46875 -20.796875 20.265625 -20.09375 
Q 16.0625 -19.390625 12.109375 -17.921875 
L 12.109375 -9.1875 
Q 16.0625 -11.328125 19.921875 -12.34375 
Q 23.78125 -13.375 27.78125 -13.375 
Q 36.625 -13.375 41.015625 -8.765625 
Q 45.40625 -4.15625 45.40625 5.171875 
L 45.40625 9.625 
Q 42.625 4.78125 38.28125 2.390625 
Q 33.9375 0 27.875 0 
Q 17.828125 0 11.671875 7.65625 
Q 5.515625 15.328125 5.515625 27.984375 
Q 5.515625 40.671875 11.671875 48.328125 
Q 17.828125 56 27.875 56 
Q 33.9375 56 38.28125 53.609375 
Q 42.625 51.21875 45.40625 46.390625 
L 45.40625 54.6875 
L 54.390625 54.6875 
z
" id="DejaVuSans-103"/>
      <path d="M 34.28125 27.484375 
Q 23.390625 27.484375 19.1875 25 
Q 14.984375 22.515625 14.984375 16.5 
Q 14.984375 11.71875 18.140625 8.90625 
Q 21.296875 6.109375 26.703125 6.109375 
Q 34.1875 6.109375 38.703125 11.40625 
Q 43.21875 16.703125 43.21875 25.484375 
L 43.21875 27.484375 
z
M 52.203125 31.203125 
L 52.203125 0 
L 43.21875 0 
L 43.21875 8.296875 
Q 40.140625 3.328125 35.546875 0.953125 
Q 30.953125 -1.421875 24.3125 -1.421875 
Q 15.921875 -1.421875 10.953125 3.296875 
Q 6 8.015625 6 15.921875 
Q 6 25.140625 12.171875 29.828125 
Q 18.359375 34.515625 30.609375 34.515625 
L 43.21875 34.515625 
L 43.21875 35.40625 
Q 43.21875 41.609375 39.140625 45 
Q 35.0625 48.390625 27.6875 48.390625 
Q 23 48.390625 18.546875 47.265625 
Q 14.109375 46.140625 10.015625 43.890625 
L 10.015625 52.203125 
Q 14.9375 54.109375 19.578125 55.046875 
Q 24.21875 56 28.609375 56 
Q 40.484375 56 46.34375 49.84375 
Q 52.203125 43.703125 52.203125 31.203125 
z
" id="DejaVuSans-97"/>
     </defs>
     <g transform="translate(247.002812 72.748562)scale(0.1 -0.1)">
      <use xlink:href="#DejaVuSans-71"/>
      <use x="77.490234" xlink:href="#DejaVuSans-80"/>
      <use x="137.792969" xlink:href="#DejaVuSans-85"/>
      <use x="210.986328" xlink:href="#DejaVuSans-32"/>
      <use x="242.773438" xlink:href="#DejaVuSans-40"/>
      <use x="281.787109" xlink:href="#DejaVuSans-65"/>
      <use x="350.195312" xlink:href="#DejaVuSans-77"/>
      <use x="436.474609" xlink:href="#DejaVuSans-68"/>
      <use x="513.476562" xlink:href="#DejaVuSans-32"/>
      <use x="545.263672" xlink:href="#DejaVuSans-86"/>
      <use x="613.5625" xlink:href="#DejaVuSans-101"/>
      <use x="675.085938" xlink:href="#DejaVuSans-103"/>
      <use x="738.5625" xlink:href="#DejaVuSans-97"/>
      <use x="799.841797" xlink:href="#DejaVuSans-32"/>
      <use x="831.628906" xlink:href="#DejaVuSans-53"/>
      <use x="895.251953" xlink:href="#DejaVuSans-54"/>
      <use x="958.875" xlink:href="#DejaVuSans-41"/>
     </g>
    </g>
   </g>
  </g>
 </g>
 <defs>
  <clipPath id="pfec1dbe574">
   <rect height="266.112" width="357.12" x="57.6" y="41.472"/>
  </clipPath>
 </defs>
</svg>
